<?xml version="1.0" encoding="UTF-8" standalone="no"?>
<!DOCTYPE svg  PUBLIC '-//W3C//DTD SVG 1.1//EN'  'http://www.w3.org/Graphics/SVG/1.1/DTD/svg11.dtd'>
<svg xmlns="http://www.w3.org/2000/svg">
<defs>
<font id="PFHighwaySansPro-Thin" horiz-adv-x="588">
<font-face underline-position="-50" font-weight="200" descent="-200" panose-1="2 0 5 0 0 0 0 2 0 4" units-per-em="1000" unicode-range="U+0020-E0FF" bbox="-178 -203 967 830" x-height="488" underline-thickness="50" font-family="PFHighwaySansPro" ascent="800" cap-height="651"/>
<missing-glyph horiz-adv-x="1000"/>
<glyph glyph-name=".notdef" horiz-adv-x="1000"/>
<glyph glyph-name=".null" horiz-adv-x="0"/>
<glyph glyph-name="nonmarkingreturn" horiz-adv-x="333"/>
<glyph glyph-name="space" horiz-adv-x="213" unicode=" "/>
<glyph glyph-name="exclam" horiz-adv-x="229" unicode="!" d="M83 32q0 18 11 28t25 10q16 0 26.5 -11t10.5 -26q0 -17 -10.5 -27.5t-26.5 -10.5q-15 0 -25.5 10.5t-10.5 26.5zM132 154h-27l-9 181v316h47v-315z"/>
<glyph glyph-name="quotedbl" horiz-adv-x="306" unicode='&quot;' d="M108 450h-27l-13 201h53zM224 450h-27l-13 201h53z"/>
<glyph glyph-name="numbersign" d="M219 422l-30 -182h181l31 182h-182zM558 421h-116l-30 -180h116l-6 -39h-117l-35 -202h-42l35 202h-180l-34 -202h-44l36 202h-116l6 39h117l30 180h-116l6 39h116l33 191h42l-32 -191h180l32 191h42l-32 -191h116z" unicode="#"/>
<glyph glyph-name="dollar" d="M305 649q95 -3 168 -59l-31 -36q-35 26 -71.5 39.5t-84.5 13.5q-64 0 -101.5 -33t-37.5 -84q0 -25 10 -43.5t26 -32t37 -23.5t42 -18q36 -14 78 -27t77.5 -34t59 -54.5t23.5 -87.5q0 -35 -12 -65t-36 -52.5t-60.5 -36t-86.5 -16.5v-90h-46v90q-53 3 -97.5 23.5 t-79.5 53.5l32 34q36 -32 79 -50t91 -18q35 0 65.5 7t53.5 22t36 39t13 58q0 50 -30 78t-75 45q-51 19 -96 34t-78.5 34.5t-53.5 49t-20 78.5q0 32 11.5 59.5t32.5 48.5t50.5 34.5t65.5 17.5v94h46v-93z" unicode="$"/>
<glyph glyph-name="percent" horiz-adv-x="806" unicode="%" d="M225 -26h-45l404 704h45zM324 455q0 34 -8 63.5t-24 51.5t-40 34t-57 12q-66 0 -98 -45t-32 -116q0 -32 7.5 -61.5t23.5 -52t40.5 -35.5t58.5 -13q33 0 57.5 13t40.5 35.5t23.5 52t7.5 61.5zM370 455q0 -92 -47 -147t-128 -55q-84 0 -129.5 55t-45.5 147q0 45 11.5 82 t34 63.5t55 41t74.5 14.5q81 0 128 -54.5t47 -146.5zM740 196q0 34 -8 63.5t-24 51t-40 34t-57 12.5q-66 0 -98 -45t-32 -116q0 -33 7.5 -62.5t23.5 -52t40.5 -35.5t58.5 -13q33 0 57.5 13t40.5 35.5t23.5 52t7.5 62.5zM786 196q0 -93 -47 -147.5t-128 -54.5 q-84 0 -129.5 55t-45.5 147q0 45 11.5 82t34 63.5t55 41t74.5 14.5q40 0 72.5 -14.5t55 -40.5t35 -63.5t12.5 -82.5z"/>
<glyph glyph-name="ampersand" horiz-adv-x="710" unicode="&amp;" d="M262 657q-11 0 -24 -4t-25 -13.5t-20 -26.5t-8 -44q0 -38 19 -67t50 -58q45 29 68 61t23 67q0 16 -4.5 31t-14.5 27t-26 19.5t-38 7.5zM298 217q17 37 17 62q0 27 -16.5 51.5t-53.5 62.5q-29 -18 -52 -41t-39.5 -48.5t-25.5 -53t-9 -52.5t8.5 -54.5t30.5 -55.5 t59.5 -43.5t94.5 -17.5q55 0 94.5 20.5t65 54t37.5 75.5t12 85q0 17 -2 34t-6 34q-54 -4 -101.5 -33t-80.5 -97zM543 369q35 0 69.5 -5t59.5 -13q-2 -10 -4.5 -19t-4.5 -18q-24 8 -49.5 12t-55.5 5q3 -19 5 -36.5t2 -34.5q0 -65 -20 -115.5t-54.5 -85.5t-81 -53t-99.5 -18 q-62 0 -106.5 18.5t-73 48t-42 67t-13.5 76.5q0 61 36 120t108 106q-41 36 -60 72.5t-19 73.5q0 19 6.5 41t21.5 40t38.5 30t57.5 12q25 0 47.5 -7.5t40 -22t27.5 -37t10 -52.5q0 -26 -10 -50t-26 -44t-35.5 -37t-38.5 -29q13 -15 24.5 -27.5t21 -26.5t16 -31t9.5 -39 q37 45 88 62t105 17z"/>
<glyph glyph-name="quotesingle" horiz-adv-x="211" unicode="&apos;" d="M117 450h-27l-13 201h53z"/>
<glyph glyph-name="parenleft" horiz-adv-x="281" unicode="(" d="M241 671q-32 -38 -59.5 -82t-47.5 -92.5t-31.5 -100t-11.5 -104.5q0 -57 11.5 -109.5t32 -101t47.5 -91.5t58 -80l-24 -22q-36 36 -67.5 80.5t-55.5 95.5t-38 107.5t-14 115.5q0 61 13.5 118.5t37.5 109.5t56 97t68 81z"/>
<glyph glyph-name="parenright" horiz-adv-x="281" unicode=")" d="M191 292q0 53 -11.5 104.5t-32 99.5t-48 92.5t-59.5 82.5l26 22q36 -36 68 -81.5t56 -97t37.5 -109t13.5 -118.5q0 -59 -14 -115.5t-38 -107.5t-55.5 -95t-67.5 -80l-24 22q31 36 58 79t47.5 91t32 101t11.5 110z"/>
<glyph glyph-name="asterisk" horiz-adv-x="426" unicode="*" d="M323 389l-36 -28l-71 114l-68 -114l-36 28l79 102l-121 36l13 44l120 -51l-7 130h41l-7 -130l120 51l14 -44l-123 -36z"/>
<glyph glyph-name="plus" d="M315 289v-171h-43v171h-171v44h171v181h43v-181h172v-44h-172z" unicode="+"/>
<glyph glyph-name="comma" horiz-adv-x="184" unicode="," d="M52 -67q15 12 24.5 29.5t11.5 36.5q-18 0 -30.5 8t-12.5 27t12.5 30t26.5 11q16 0 30.5 -13t14.5 -41q0 -34 -17.5 -60.5t-46.5 -44.5z"/>
<glyph glyph-name="hyphen" horiz-adv-x="315" unicode="-" d="M52 285v51h212v-51h-212z"/>
<glyph glyph-name="period" horiz-adv-x="154" unicode="." d="M114 33q0 -17 -11 -27.5t-26 -10.5q-16 0 -26.5 10.5t-10.5 27.5q0 16 10.5 27t26.5 11q15 0 26 -11t11 -27z"/>
<glyph glyph-name="slash" horiz-adv-x="370" unicode="/" d="M8 -82l315 814h44l-314 -814h-45z"/>
<glyph glyph-name="zero" d="M508 325q0 62 -13 115t-39.5 91.5t-66.5 60.5t-94 22t-93.5 -21.5t-65.5 -60t-39 -91.5t-13 -116q0 -59 12.5 -111.5t38 -92.5t65.5 -63.5t95 -23.5t95 23.5t66.5 63t39 92.5t12.5 112zM559 325q0 -77 -18.5 -138.5t-53 -105.5t-83 -67.5t-109.5 -23.5q-62 0 -111 24 t-82.5 68t-51 105.5t-17.5 137.5q0 75 17.5 136.5t51 105.5t82.5 68.5t111 24.5q60 0 109 -24t83.5 -67.5t53 -105.5t18.5 -138z" unicode="0"/>
<glyph glyph-name="one" d="M277 0v558h-79v33q23 2 38 7t24.5 12.5t15 17.5t9.5 23h42v-651h-50z" unicode="1"/>
<glyph glyph-name="two" d="M63 0q6 64 28.5 112.5t56 87t77 69.5t91.5 60q35 21 60 39.5t41 37t23.5 39t7.5 46.5q0 61 -43.5 93t-118.5 32q-43 0 -86 -16.5t-80 -44.5l-30 37q42 33 93.5 51t105.5 18q98 0 154 -44t56 -121q0 -34 -9.5 -61.5t-30 -51.5t-51.5 -47.5t-74 -49.5q-54 -32 -90 -59 t-60 -54.5t-38.5 -58t-23.5 -69.5h382v-45h-441z" unicode="2"/>
<glyph glyph-name="three" d="M251 -10q-65 0 -116 22t-89 57l34 35q36 -32 79.5 -50.5t92.5 -18.5q40 0 74 9.5t59 28t39.5 46t14.5 63.5t-14 62t-37.5 42.5t-53 24.5t-59.5 8h-31v42h36q31 0 57.5 10.5t46 28t30.5 41t11 49.5q0 24 -9.5 47t-29 40.5t-50.5 28t-74 10.5q-38 0 -80 -15.5t-74 -41.5 q-8 9 -15.5 18t-15.5 18q42 34 89.5 50t100.5 16q48 0 86.5 -12.5t66 -34t42 -52t14.5 -66.5q0 -22 -6.5 -45t-21 -44t-36.5 -39t-52 -28v-1q37 -8 62 -25.5t40 -40t21.5 -46.5t6.5 -45q0 -45 -17.5 -80.5t-49.5 -60.5t-76 -38t-96 -13z" unicode="3"/>
<glyph glyph-name="four" d="M404 589l-317 -389h317v389zM450 155v-155h-46v155h-376v45l369 451h53v-451h90v-45h-90z" unicode="4"/>
<glyph glyph-name="five" d="M273 -10q-57 0 -109 14.5t-95 37.5l22 40q42 -23 91 -36t94 -13q90 0 144 44t54 129q0 39 -14 68.5t-37.5 49t-55 29t-66.5 9.5q-23 0 -47 -3.5t-47 -10t-43 -15t-35 -18.5l-45 20q5 79 10 157.5t11 158.5h372v-45h-331l-14 -240h1q52 27 96 33.5t80 6.5q50 0 90 -15.5 t67.5 -42t42 -62t14.5 -76.5q0 -54 -18.5 -95.5t-51.5 -69t-79 -41.5t-101 -14z" unicode="5"/>
<glyph glyph-name="six" d="M302 348q-40 0 -75 -10.5t-61.5 -30t-41.5 -48t-15 -64.5q0 -26 11 -55t33.5 -53t56.5 -40t81 -16q40 0 75 11t60.5 31.5t40 50.5t14.5 68q0 41 -14 70.5t-38.5 48.5t-57 28t-69.5 9zM286 -10q-45 0 -86.5 14.5t-73 45t-50 78.5t-18.5 115q0 62 18.5 131.5t61.5 130 t114.5 103t176.5 50.5v-44q-41 -4 -76 -12.5t-66 -24.5q-71 -36 -118.5 -111t-62.5 -169q1 0 1.5 0.5t1.5 0.5q21 29 47.5 47t54.5 28t53.5 13.5t44.5 3.5q40 0 79 -10.5t70.5 -33.5t51 -60t19.5 -90q0 -44 -14.5 -79.5t-40.5 -61t-62.5 -41.5t-81.5 -21q-21 -3 -44 -3z" unicode="6"/>
<glyph glyph-name="seven" d="M495 597q-46 -51 -88 -119t-75 -145.5t-53.5 -162.5t-21.5 -170h-51q2 75 18.5 154t47.5 157.5t75 153.5t100 141h-392v45h438z" unicode="7"/>
<glyph glyph-name="eight" d="M299 622q-39 0 -70 -10t-52 -27t-32.5 -41t-11.5 -52q0 -30 13 -53.5t35.5 -39.5t53 -24.5t64.5 -8.5q36 0 66 8.5t52.5 24t35 38.5t12.5 52q0 28 -10 52.5t-30.5 42.5t-52 28t-73.5 10zM297 325q-43 0 -79 -9.5t-62 -28.5t-40.5 -46t-14.5 -61q0 -38 15 -66t41 -47 t62.5 -28.5t78.5 -9.5q38 0 74 9t63.5 27t44 45.5t16.5 64.5q0 75 -53.5 112.5t-145.5 37.5zM296 -10q-120 0 -181 50t-61 138q0 24 6.5 49.5t23 49t45 42.5t72.5 30q-39 10 -62 29t-35.5 40t-16 40.5t-3.5 31.5q0 42 16.5 74t46 53.5t69 32.5t85.5 11q45 0 83.5 -11t67 -32 t45 -52.5t16.5 -73.5q0 -11 -3 -30.5t-15 -41t-35.5 -41.5t-65.5 -30v-1q41 -8 69.5 -26.5t46.5 -42t26 -50t8 -51.5q0 -84 -64 -136t-184 -52z" unicode="8"/>
<glyph glyph-name="nine" d="M282 299q40 0 75 11t61.5 31.5t41.5 49.5t15 64q0 24 -10.5 52t-33 51.5t-56.5 39.5t-81 16q-41 0 -76.5 -10.5t-61.5 -31t-41 -50t-15 -67.5q0 -41 14.5 -70.5t39.5 -48.5t58 -28t70 -9zM296 658q45 0 86.5 -14t73.5 -44t51 -78t19 -117q0 -62 -18.5 -131.5t-61.5 -130 t-114 -103t-176 -50.5v43q42 4 79.5 14t69.5 27q68 36 112.5 109t60.5 167q-1 1 -2 1q-22 -30 -49.5 -48.5t-55.5 -28t-53.5 -13t-43.5 -3.5q-39 0 -78.5 10.5t-71 33.5t-51.5 60t-20 90q0 51 19 89.5t52 64.5t77.5 39t94.5 13z" unicode="9"/>
<glyph glyph-name="colon" horiz-adv-x="204" unicode=":" d="M141 33q0 -17 -10.5 -27.5t-26.5 -10.5q-15 0 -25.5 10.5t-10.5 27.5q0 16 10.5 27t25.5 11t26 -11t11 -27zM141 380q0 -17 -10.5 -27.5t-26.5 -10.5q-15 0 -25.5 10.5t-10.5 27.5q0 16 10.5 27t25.5 11t26 -11t11 -27z"/>
<glyph glyph-name="semicolon" horiz-adv-x="218" unicode=";" d="M75 -68q31 27 36 66h-3q-15 0 -27.5 8.5t-12.5 28.5q0 18 12.5 29t26.5 11q16 0 30.5 -12.5t14.5 -40.5q0 -34 -17.5 -61t-46.5 -45zM152 380q0 -17 -11.5 -28t-27.5 -11q-17 0 -29 11t-12 28q0 16 12 27.5t29 11.5q16 0 27.5 -11t11.5 -28z"/>
<glyph glyph-name="less" d="M112 298v41q10 5 38.5 20t65.5 35.5t78 43t78 43t65 35.5t38 20v-46l-315 -171q7 -4 31.5 -17.5t57 -31.5t69 -39t69 -39t56.5 -31.5t32 -16.5v-46z" unicode="&lt;"/>
<glyph glyph-name="equal" d="M102 197v44h384v-44h-384zM102 382v44h384v-44h-384z" unicode="="/>
<glyph glyph-name="greater" d="M112 98v46l315 175q-7 3 -31.5 16t-57 31t-69 38.5t-69 38.5t-57 31t-31.5 16v46q10 -5 38.5 -20t65 -35.5t78 -43t78 -43t64.5 -35.5t39 -20v-41z" unicode="&gt;"/>
<glyph glyph-name="question" horiz-adv-x="470" unicode="?" d="M231 -5q-16 0 -26.5 10t-10.5 27t11.5 27.5t25.5 10.5q15 0 25.5 -11t10.5 -27t-10.5 -26.5t-25.5 -10.5zM240 659q44 0 78 -12t57 -32.5t36 -48.5t15 -59q0 -38 -12.5 -70.5t-33.5 -56.5q-28 -32 -50.5 -59t-38.5 -53.5t-25.5 -54.5t-11.5 -61h-47q2 37 13 68.5 t28.5 61.5t42 60.5t53.5 66.5q14 17 24 39.5t10 45.5q0 18 -6.5 39t-22 39t-43 30.5t-69.5 12.5q-38 0 -65 -12t-45.5 -30.5t-28.5 -40.5t-14 -41h-49q6 40 24.5 71.5t46 53t62 32.5t72.5 11z"/>
<glyph glyph-name="at" horiz-adv-x="814" unicode="@" d="M385 170q27 0 55.5 16.5t46.5 39.5l17 194q-14 21 -40 37t-56 16q-27 0 -49 -14.5t-37.5 -39t-23.5 -57t-8 -68.5q0 -55 24 -89.5t71 -34.5zM379 135q-30 0 -54 11.5t-40.5 32.5t-25.5 49.5t-9 62.5q0 56 14 97t36.5 67.5t50.5 39.5t55 13q20 0 48 -9t54 -35l4 38h38 q-6 -68 -12 -134.5t-11 -133.5v-9q0 -22 10.5 -37t37.5 -15q31 0 55 17t41 45.5t26 64t9 73.5q0 66 -23 116.5t-62 84t-89 50.5t-104 17q-70 0 -129 -23.5t-102 -66t-67.5 -101t-24.5 -127.5q0 -75 24 -134.5t66.5 -101.5t101.5 -64.5t130 -22.5q57 0 102.5 9.5t90.5 28.5 l12 -33q-48 -17 -95.5 -28t-105.5 -11q-79 0 -145 24.5t-114 71t-75 112.5t-27 149q0 75 26.5 139t73.5 111.5t112 74t143 26.5q70 0 128.5 -20.5t100.5 -59.5t65.5 -95t23.5 -127q0 -53 -13 -96t-36 -73.5t-54 -47.5t-67 -17q-10 0 -22.5 2.5t-24 8t-21 15t-13.5 23.5 q-47 -52 -113 -52z"/>
<glyph glyph-name="A" horiz-adv-x="592" unicode="A" d="M448 208l-110 281q-11 26 -20.5 51.5t-20.5 53.5h-3l-71 -186l-78 -200h303zM128 162q-15 -41 -31 -81t-31 -81h-53l257 651h54l257 -651h-52q-16 41 -32 81t-31 81h-338z"/>
<glyph glyph-name="B" horiz-adv-x="577" unicode="B" d="M115 328v-283h208q77 0 115.5 38t38.5 104q0 33 -12.5 59.5t-34 44.5t-50.5 27.5t-62 9.5h-203zM115 606v-234h202q31 0 55 9.5t41 25.5t26 37.5t9 45.5q0 52 -30 84t-93 32h-210zM526 189q0 -93 -53.5 -141t-154.5 -48h-251v651h256q80 0 126.5 -41t46.5 -117 q0 -21 -6.5 -42.5t-19 -40.5t-32 -34.5t-46.5 -22.5v-2q62 -11 98 -56.5t36 -105.5z"/>
<glyph glyph-name="C" horiz-adv-x="537" unicode="C" d="M312 661q64 0 110.5 -19.5t81.5 -59.5l-35 -35q-32 36 -69.5 52.5t-87.5 16.5q-52 0 -92 -22.5t-67.5 -61.5t-41.5 -92t-14 -114t13.5 -114t40.5 -92t67.5 -61.5t94.5 -22.5q95 0 159 73l36 -32q-35 -42 -83.5 -64.5t-112.5 -22.5q-60 0 -109.5 23t-84 66.5t-53.5 105.5 t-19 140q0 76 19.5 138.5t54.5 106t84 67.5t108 24z"/>
<glyph glyph-name="D" horiz-adv-x="594" unicode="D" d="M122 605v-559h104q68 0 118 20.5t83 57.5t49 88.5t16 112.5t-16 112.5t-49 88.5t-83 58t-118 21h-104zM226 651q65 0 122.5 -18t101 -57t69 -101t25.5 -150q0 -87 -26 -148.5t-70 -101t-101.5 -57.5t-121.5 -18h-152v651h153z"/>
<glyph glyph-name="E" horiz-adv-x="492" unicode="E" d="M66 0v651h396v-46h-346v-233h248v-46h-248v-280h360v-46h-410z"/>
<glyph glyph-name="F" horiz-adv-x="476" unicode="F" d="M118 604v-242h244v-46h-244v-316h-49v651h398v-47h-349z"/>
<glyph glyph-name="G" horiz-adv-x="575" unicode="G" d="M306 661q64 0 112 -20.5t84 -64.5l-36 -34q-64 73 -161 73q-54 0 -94.5 -22.5t-67 -61.5t-40 -92t-13.5 -114q0 -62 13.5 -115t40.5 -92t68 -61t95 -22q51 0 86.5 18t58 46t32.5 62t10 65v34h-112v45h163v-52q0 -63 -17.5 -112t-49 -82.5t-75.5 -51t-97 -17.5 q-62 0 -111.5 23.5t-84 67t-53 105.5t-18.5 139q0 78 19.5 140.5t54.5 106t84 66.5t109 23z"/>
<glyph glyph-name="H" horiz-adv-x="605" unicode="H" d="M489 0v318h-374v-318h-49v651h49v-287h374v287h49v-651h-49z"/>
<glyph glyph-name="I" horiz-adv-x="224" unicode="I" d="M87 0v651h50v-651h-50z"/>
<glyph glyph-name="J" horiz-adv-x="516" unicode="J" d="M451 251q0 -135 -54.5 -198t-166.5 -63q-82 0 -131 35.5t-75 102.5l47 18q23 -53 60 -81.5t102 -28.5q48 0 80 16t51.5 45.5t28 72t8.5 95.5v386h50v-400z"/>
<glyph glyph-name="K" horiz-adv-x="563" unicode="K" d="M477 0q-51 96 -101.5 191.5t-101.5 192.5q-41 -52 -80 -104t-80 -104v-176h-49v651h49v-405h1l99 132l208 273h57l-173 -225q57 -107 113 -213t113 -213h-55z"/>
<glyph glyph-name="L" horiz-adv-x="467" unicode="L" d="M66 0v651h50v-604h347v-47h-397z"/>
<glyph glyph-name="M" horiz-adv-x="694" unicode="M" d="M577 543h-1l-79 -186q-24 -56 -48.5 -112t-45.5 -103.5t-36.5 -82.5t-21.5 -47q-27 57 -53 118q-23 51 -49.5 112.5t-49.5 118.5q-12 28 -24.5 58t-23 56t-18 45t-9.5 25h-1v-545h-48v651h52q30 -71 68 -156.5t73 -169.5l83 -198h4l83 198q35 81 71.5 164.5t69.5 161.5 h51v-651h-47v543z"/>
<glyph glyph-name="N" horiz-adv-x="590" unicode="N" d="M478 0q-9 14 -28.5 44.5t-45.5 70.5t-56.5 87t-61 95t-60 93.5t-53 82.5t-39.5 62t-21 33h-1v-568h-49v651h52l242 -372q30 -48 60.5 -96.5t59.5 -92.5h1v561h49v-651h-49z"/>
<glyph glyph-name="O" horiz-adv-x="619" unicode="O" d="M522 325q0 61 -13 114.5t-39.5 93t-66.5 62t-94 22.5q-53 0 -93 -22t-66.5 -61t-40 -92.5t-13.5 -116.5q0 -58 13 -111t39.5 -93t66.5 -63.5t94 -23.5q55 0 95 23.5t66 63.5t39 93t13 111zM573 325q0 -77 -18.5 -138.5t-53 -105.5t-83.5 -67.5t-109 -23.5 q-62 0 -110.5 24t-82.5 68t-52 105.5t-18 137.5q0 75 18 136.5t52 105.5t82.5 68.5t110.5 24.5q60 0 109 -24t83.5 -67.5t53 -105.5t18.5 -138z"/>
<glyph glyph-name="P" horiz-adv-x="537" unicode="P" d="M116 606v-297h210q72 0 110 40t38 109q0 72 -41 110t-107 38h-210zM525 459q0 -49 -15 -85.5t-42 -61t-65 -37t-84 -12.5h-203v-263h-49v651h259q43 0 80 -12t63 -36t41 -60t15 -84z"/>
<glyph glyph-name="Q" horiz-adv-x="620" unicode="Q" d="M527 325q0 62 -13 115.5t-40 92.5t-67 61.5t-94 22.5t-94 -22t-66.5 -60.5t-39.5 -92t-13 -116.5q0 -60 13 -113t39 -92.5t66.5 -63t94.5 -23.5q52 0 91 21l-48 76l37 23l46 -73q47 41 67.5 105t20.5 139zM577 326q0 -97 -29 -169t-83 -115l38 -60l-38 -24l-37 60 q-53 -28 -115 -28q-60 0 -108.5 23.5t-83 67t-53 105.5t-18.5 139t18.5 139t52.5 105.5t83 67t109 23.5t109 -23.5t83.5 -67t53 -105.5t18.5 -138z"/>
<glyph glyph-name="R" horiz-adv-x="560" unicode="R" d="M472 459q0 35 -11.5 62.5t-32 46t-48 28.5t-60.5 10h-207v-296h208q70 0 110.5 40t40.5 109zM448 0l-120 265h-215v-265h-50v651h259q43 0 80 -12t63.5 -35.5t41.5 -59.5t15 -84q0 -75 -37.5 -123t-105.5 -65l126 -272h-57z"/>
<glyph glyph-name="S" horiz-adv-x="513" unicode="S" d="M253 -10q-62 0 -114 21t-92 58l33 36q38 -34 83 -52.5t95 -18.5q37 0 69 7t56 22.5t37.5 40.5t13.5 61q0 37 -16.5 61t-42.5 40.5t-57.5 27l-61.5 20.5q-41 14 -76.5 28.5t-61 34t-40 47.5t-14.5 69q0 37 15 68t41.5 53.5t64 34.5t82.5 12q53 0 101 -15.5t89 -46.5 q-9 -10 -16 -19t-15 -18q-38 27 -76.5 40t-89.5 13q-69 0 -107 -34t-38 -86q0 -26 10.5 -45t27 -33t38 -24t44.5 -18q38 -14 82 -27.5t81.5 -35.5t62 -56.5t24.5 -89.5q0 -39 -14 -71t-42.5 -55.5t-72.5 -36.5t-103 -13z"/>
<glyph glyph-name="T" horiz-adv-x="478" unicode="T" d="M265 605v-605h-49v605h-202v46h454v-46h-203z"/>
<glyph glyph-name="U" horiz-adv-x="597" unicode="U" d="M537 267q0 -141 -62 -209t-177 -68q-113 0 -173 69.5t-60 209.5v382h49v-379q0 -53 11.5 -96.5t34.5 -74.5t58 -48t82 -17q49 0 84 16.5t58 46.5t34 72.5t11 94.5v385h50v-384z"/>
<glyph glyph-name="V" horiz-adv-x="566" unicode="V" d="M256 0l-232 651h53l208 -584h2l74 212l132 372h52l-229 -651h-60z"/>
<glyph glyph-name="W" horiz-adv-x="727" unicode="W" d="M507 0l-91 362q-1 6 -5 21.5t-9 35.5t-11 43t-11 43t-9.5 35t-5.5 21h-1q-13 -50 -25.5 -98.5t-24.5 -99.5q-24 -91 -47 -181.5t-46 -181.5h-61l-138 651h50q20 -94 38.5 -186t37.5 -185l43 -207h1l54 207l95 371h48q24 -94 48.5 -186.5t47.5 -186.5l51 -205h1l44 205 l78 373h48q-35 -164 -69.5 -325.5t-69.5 -325.5h-61z"/>
<glyph glyph-name="X" horiz-adv-x="514" unicode="X" d="M426 0l-170 292l-170 -292h-56l201 335l-187 316h58l155 -271l158 271h55l-186 -314l200 -337h-58z"/>
<glyph glyph-name="Y" horiz-adv-x="530" unicode="Y" d="M289 234v-234h-49v234l-229 417h55l198 -370l200 370h54z"/>
<glyph glyph-name="Z" horiz-adv-x="531" unicode="Z" d="M504 604l-413 -558h410v-46h-469v45l414 560h-395v46h453v-47z"/>
<glyph glyph-name="bracketleft" horiz-adv-x="290" unicode="[" d="M68 -106v818h182v-42h-134v-733h134v-43h-182z"/>
<glyph glyph-name="backslash" horiz-adv-x="370" unicode="\" d="M321 -82l-314 814h44l315 -814h-45z"/>
<glyph glyph-name="bracketright" horiz-adv-x="300" unicode="]" d="M63 -106v43h134v733h-134v42h182v-818h-182z"/>
<glyph glyph-name="asciicircum" horiz-adv-x="501" unicode="^" d="M399 350l-146 257l-147 -257h-45l172 300h41l171 -300h-46z"/>
<glyph glyph-name="underscore" horiz-adv-x="493" unicode="_" d="M0 -108v38h493v-38h-493z"/>
<glyph glyph-name="grave" horiz-adv-x="470" unicode="`" d="M152 709l60 12l70 -148l-26 -9z"/>
<glyph glyph-name="a" horiz-adv-x="461" unicode="a" d="M361 216q-36 20 -69.5 31t-79.5 11q-28 0 -52 -7.5t-42 -22.5t-28 -36.5t-10 -49.5q0 -56 33.5 -85t93.5 -29q49 2 86.5 23.5t67.5 52.5v112zM361 57h-1q-24 -23 -46.5 -36t-43.5 -19.5t-40 -8.5t-37 -2q-29 0 -57 8t-50.5 26t-36.5 46t-14 69q0 33 12 61.5t35 49.5 t56.5 32.5t75.5 11.5q32 0 69 -7.5t78 -31.5v78q0 66 -33 93.5t-96 27.5q-35 0 -67.5 -8.5t-61.5 -22.5l-16 39q34 15 70 24t81 9q81 0 125 -38t44 -114v-344h-46v57z"/>
<glyph glyph-name="b" horiz-adv-x="485" unicode="b" d="M246 456q-20 0 -41 -7t-40.5 -18t-36 -25t-27.5 -28v-274q24 -31 62 -53t83 -22q31 0 58.5 15.5t47 43t31 65t11.5 82.5q0 102 -36 161.5t-112 59.5zM254 -10q-16 0 -34 1.5t-37 8t-39 19t-41 34.5h-1v-53h-47v660l47 21v-253h1q47 43 86 55.5t68 12.5q35 0 68 -13.5 t58.5 -44t40.5 -79.5t15 -121q0 -64 -16.5 -110.5t-43 -77t-59.5 -45.5t-66 -15z"/>
<glyph glyph-name="c" horiz-adv-x="420" unicode="c" d="M242 496q45 0 80.5 -13.5t67.5 -44.5l-31 -32q-29 27 -58.5 38t-61.5 11q-35 0 -62 -17t-46 -45.5t-29 -67.5t-10 -82q0 -45 10 -83.5t29.5 -67t47.5 -44.5t64 -16q35 0 61.5 12t55.5 38l30 -29q-27 -29 -62 -46t-88 -17q-39 0 -74.5 16t-62.5 48t-42.5 79t-15.5 110 t15.5 110t42.5 79t63 48t76 16z"/>
<glyph glyph-name="d" horiz-adv-x="481" unicode="d" d="M383 381q-11 15 -26.5 28.5t-33 24t-37 16.5t-38.5 6q-75 0 -116.5 -59.5t-41.5 -159.5q0 -45 11 -83.5t30.5 -66t46 -43t58.5 -15.5q45 0 84 22t63 53v277zM382 0v54h-1q-21 -22 -42 -35t-41 -19.5t-39 -8t-35 -1.5q-32 0 -64.5 14.5t-58 45t-41.5 77.5t-16 111 q0 72 18 121t47 79.5t64.5 44t71.5 13.5q30 0 62.5 -11.5t73.5 -48.5h1v224l46 21v-681h-46z"/>
<glyph glyph-name="e" horiz-adv-x="473" unicode="e" d="M393 263q0 39 -9 74t-27.5 61.5t-47.5 42t-69 15.5q-31 0 -57.5 -14t-46 -39.5t-32 -61t-14.5 -78.5h303zM242 496q46 0 82.5 -17.5t62 -49.5t38.5 -77t13 -99v-27h-348q1 -49 14.5 -85.5t35 -61t49.5 -37t60 -12.5t63 13t57 36l27 -30q-65 -59 -153 -59q-39 0 -74.5 15 t-63.5 46.5t-44.5 78.5t-16.5 112q0 59 15 106t42 80t63 50.5t78 17.5z"/>
<glyph glyph-name="f" horiz-adv-x="258" unicode="f" d="M142 0h-47v450h-66v38h66v94q0 52 27.5 75t72.5 23q10 0 24 -0.5t25 -2.5l-2 -39q-9 1 -17.5 1h-15.5q-33 0 -50 -12.5t-17 -50.5v-88h100v-38h-100v-450z"/>
<glyph glyph-name="g" horiz-adv-x="483" unicode="g" d="M238 31q21 0 42 7t40 18t35.5 25t27.5 29v270q-23 31 -61.5 54t-82.5 23q-32 0 -59 -16t-46.5 -43.5t-31 -65.5t-11.5 -82q0 -102 35.5 -160.5t111.5 -58.5zM429 28q0 -83 -42.5 -141.5t-138.5 -89.5l-16 39q45 16 74.5 36.5t46.5 43.5t23.5 47.5t6.5 49.5v46h-1 q-47 -43 -86.5 -55t-67.5 -12q-36 0 -69 13t-58.5 42.5t-40.5 78t-15 120.5q0 64 16.5 111t43.5 78t60 46t66 15q16 0 33.5 -2t37 -8.5t39.5 -19t40 -34.5h1v56h47v-460z"/>
<glyph glyph-name="h" horiz-adv-x="467" unicode="h" d="M421 0h-47v293q0 85 -33 123.5t-99 38.5q-25 0 -47.5 -10t-40.5 -26.5t-30.5 -38.5t-18.5 -46q-3 -10 -4 -21.5t-1 -22.5v-290h-46v661l46 21v-278h2q14 25 33 43t39.5 28.5t41 15.5t38.5 5q83 0 125 -47.5t42 -148.5v-300z"/>
<glyph glyph-name="i" horiz-adv-x="210" unicode="i" d="M82 0v489h46v-489h-46zM137 626q0 -14 -9.5 -23.5t-22.5 -9.5q-14 0 -23 9.5t-9 23.5q0 13 9 22t22 9q14 0 23.5 -9t9.5 -22z"/>
<glyph glyph-name="j" horiz-adv-x="211" unicode="j" d="M135 -7q0 -42 -4.5 -75.5t-19.5 -57t-44 -37.5t-78 -18l-4 41q36 5 57 16t31.5 28.5t13 41.5t2.5 55v502h46v-496zM145 626q0 -14 -9 -23.5t-22 -9.5q-14 0 -23 9.5t-9 23.5q0 13 9 22t22 9q14 0 23 -9t9 -22z"/>
<glyph glyph-name="k" horiz-adv-x="409" unicode="k" d="M218 290l-119 -154v-136h-46v660l46 21v-478h1q9 12 20.5 27l23 30t22 29.5t19.5 25.5q34 43 67 86t67 87h57q-32 -40 -62.5 -80t-62.5 -81l146 -327h-51z"/>
<glyph glyph-name="l" horiz-adv-x="183" unicode="l" d="M69 0v661l45 21v-682h-45z"/>
<glyph glyph-name="m" horiz-adv-x="735" unicode="m" d="M98 408l2 -1q13 27 31 44t37.5 26.5t39 13t37.5 3.5q49 0 85.5 -25t49.5 -74h2q28 49 65.5 74.5t88.5 25.5q83 0 117.5 -48t34.5 -147v-300h-47v293q0 80 -26 120.5t-90 40.5q-25 0 -46 -10t-37.5 -26.5t-28 -39t-16.5 -46.5q-4 -17 -4 -40v-292h-47v302 q0 75 -27.5 113.5t-89.5 38.5q-49 0 -81 -33t-44 -80q-2 -12 -4 -25t-2 -26v-290h-46v488h46v-80z"/>
<glyph glyph-name="n" horiz-adv-x="466" unicode="n" d="M419 0h-47v293q0 85 -32.5 123.5t-98.5 38.5q-26 0 -48 -9.5t-40 -26t-30.5 -38t-18.5 -45.5q-6 -21 -6 -46v-290h-46v489h46v-87l2 -1q14 26 32.5 44t39 29.5t41.5 16.5t39 5q83 0 125 -47.5t42 -148.5v-300z"/>
<glyph glyph-name="o" horiz-adv-x="497" unicode="o" d="M407 244q0 44 -10 83t-30 67.5t-50.5 45t-71.5 16.5q-38 0 -67 -17t-48.5 -45.5t-29 -66.5t-9.5 -80q0 -48 10.5 -88t31 -68.5t50 -44t67.5 -15.5q39 0 68 17.5t49 46.5t30 68t10 81zM453 247q0 -62 -16 -109.5t-43.5 -80.5t-65.5 -50t-83 -17q-43 0 -79.5 17t-63.5 50 t-42.5 80t-15.5 107q0 63 15.5 110t42.5 78.5t64.5 47.5t81.5 16t81.5 -16.5t65 -48.5t43 -78.5t15.5 -105.5z"/>
<glyph glyph-name="p" horiz-adv-x="483" unicode="p" d="M100 106q23 -30 59.5 -52.5t74.5 -22.5q76 0 117.5 58.5t41.5 161.5q0 45 -11 83t-30.5 65t-46.5 42.5t-59 15.5q-46 0 -84.5 -22t-61.5 -53v-276zM101 489v-56h1q38 39 78.5 51t72.5 12q34 0 67.5 -14.5t59.5 -44.5t42 -77t16 -111q0 -71 -18 -120t-46.5 -80t-64 -44.5 t-71.5 -13.5q-30 0 -64 11t-73 49h-1v-216l-46 -21v675h47z"/>
<glyph glyph-name="q" horiz-adv-x="482" unicode="q" d="M237 30q20 0 41 7t40.5 18t35.5 25t27 29v271q-23 31 -61 54t-83 23q-31 0 -58 -15.5t-47 -43t-31.5 -65t-11.5 -81.5q0 -51 9 -92t27 -70t46 -44.5t66 -15.5zM229 496q16 0 34 -1.5t37.5 -8t39.5 -19t40 -33.5h1v54h46v-653l-46 -21v244h-1q-47 -42 -86 -54.5t-68 -12.5 q-35 0 -68 13.5t-58.5 43.5t-41 79t-15.5 121q0 64 16.5 110.5t43.5 77t60 45.5t66 15z"/>
<glyph glyph-name="r" horiz-adv-x="326" unicode="r" d="M118 408q20 46 61 67t85 21q14 0 28.5 -1.5t28.5 -6.5l-10 -46q-29 6 -53 6q-35 0 -61 -12t-44 -33t-27 -49.5t-9 -61.5v-292h-47v488h47l-1 -79z"/>
<glyph glyph-name="s" horiz-adv-x="419" unicode="s" d="M382 123q0 -33 -14 -58t-38.5 -41.5t-57.5 -25t-70 -8.5q-42 0 -85 10t-81 30l19 38q38 -20 76.5 -29t72.5 -9q23 0 46.5 5t42.5 16t31 28t12 41t-10.5 41.5t-29 30t-44 22.5t-55.5 19q-34 10 -62 22.5t-48 29t-31 37.5t-11 48q0 55 45 90t125 35q36 0 73.5 -7t70.5 -24 l-16 -39q-35 17 -69.5 23.5t-59.5 6.5q-56 0 -90 -24t-34 -57q0 -14 5.5 -27.5t19.5 -26t37 -24.5t59 -22q36 -11 67 -23.5t54.5 -29.5t36.5 -41t13 -57z"/>
<glyph glyph-name="t" horiz-adv-x="283" unicode="t" d="M142 488h105v-39h-105v-353q0 -35 14.5 -48t42.5 -13q14 0 29 2t35 5l4 -35q-15 -6 -39.5 -9.5t-42.5 -3.5q-51 0 -69 26t-18 74v355h-75v39h75v124l44 19v-143z"/>
<glyph glyph-name="u" horiz-adv-x="464" unicode="u" d="M48 489h47v-296q0 -87 31 -125t97 -38q25 0 46.5 9.5t39 25.5t30 37t18.5 45q7 22 7 49v293h46v-489h-46v84h-2q-14 -26 -32 -44.5t-38.5 -29.5t-41 -16t-38.5 -5q-82 0 -123 46t-41 148v306z"/>
<glyph glyph-name="v" horiz-adv-x="435" unicode="v" d="M193 0l-178 488h49q26 -74 51.5 -146t51.5 -145l49 -140h2l48 140l101 291h48q-45 -123 -88 -244t-87 -244h-47z"/>
<glyph glyph-name="w" horiz-adv-x="605" unicode="w" d="M407 0q-4 15 -13 48.5t-20 75.5t-23 88t-22.5 87t-18.5 71.5t-11 41.5h-1q-9 -35 -19 -70.5t-20 -71.5l-73 -270h-43l-126 488h47l63 -257q10 -41 19 -81.5t19 -80.5h2q3 13 11.5 44.5t19 72.5t23 87t23.5 88.5t20 76t14 50.5h44q17 -66 34 -130.5t34 -130.5 q9 -40 19 -79.5t20 -78.5h1q11 39 20 78t20 80q17 66 33.5 130.5t33.5 130.5h47l-132 -488h-45z"/>
<glyph glyph-name="x" horiz-adv-x="398" unicode="x" d="M318 0l-120 212l-123 -212h-51l149 251l-138 237h51l113 -195l113 195h51l-139 -234l149 -254h-55z"/>
<glyph glyph-name="y" horiz-adv-x="445" unicode="y" d="M136 -183l64 177q-46 124 -91 246.5t-90 247.5h48l96 -268q14 -42 28.5 -83.5t29.5 -83.5h1l59 167l97 268h47q-61 -167 -122.5 -336t-122.5 -335h-44z"/>
<glyph glyph-name="z" horiz-adv-x="432" unicode="z" d="M37 39q75 103 148.5 204t148.5 204v2h-276v39h331v-38l-296 -409v-1h296v-40h-352v39z"/>
<glyph glyph-name="braceleft" horiz-adv-x="290" unicode="{" d="M222 -106q-46 0 -72 30t-26 88v123q0 23 -3.5 46.5t-12 43t-22.5 33.5t-36 18v30q22 4 36.5 17.5t22.5 33.5t11.5 44t3.5 48v121q0 58 26 88t73 30h41v-35h-36q-20 0 -32 -9.5t-18.5 -24.5t-9 -34.5t-2.5 -39.5v-107q0 -33 -6.5 -58t-17 -43t-22.5 -29.5t-24 -16.5v-4 q25 -7 47.5 -41.5t22.5 -104.5v-104q0 -21 2.5 -40.5t9 -34.5t18.5 -24t31 -9h37v-35h-42z"/>
<glyph glyph-name="bar" horiz-adv-x="213" unicode="|" d="M90 -123v871h40v-871h-40z"/>
<glyph glyph-name="braceright" horiz-adv-x="290" unicode="}" d="M51 -106v35h37q19 0 30.5 9t18.5 24t9.5 34.5t2.5 40.5v104q0 70 22.5 104.5t47.5 41.5v4q-12 5 -24 16.5t-22.5 29.5t-17 43t-6.5 58v107q0 20 -2.5 39.5t-9 34.5t-19 24.5t-31.5 9.5h-36v35h41q47 0 73 -30t26 -88v-121q0 -24 3.5 -48t11.5 -44t22.5 -33.5t36.5 -17.5 v-30q-22 -4 -36 -18t-22.5 -33.5t-12 -43t-3.5 -46.5v-123q0 -58 -26 -88t-72 -30h-42z"/>
<glyph glyph-name="asciitilde" d="M518 362q-38 -88 -116 -88q-27 0 -54.5 11.5t-54.5 26t-52.5 26t-48.5 11.5q-29 0 -49 -18.5t-37 -41.5l-30 16q23 47 56 67.5t61 20.5q25 0 53 -12t55 -26t53 -26t49 -12q32 0 50 17t35 46z" unicode="~"/>
<glyph glyph-name="exclamdown" horiz-adv-x="229" unicode="¡" d="M156 450q0 -17 -11 -27.5t-25 -10.5q-16 0 -26.5 11t-10.5 27t10.5 26.5t26.5 10.5t26 -10t10 -27zM108 301h26l9 -182v-288h-46v288z"/>
<glyph glyph-name="cent" d="M300 -8q-38 4 -70.5 21t-56.5 48t-37.5 76.5t-13.5 105.5q0 58 13.5 102.5t37.5 76t56.5 49.5t70.5 23v106h38v-105q37 -2 72 -17.5t65 -44.5l-29 -31q-34 29 -60 41t-63 12t-65.5 -16.5t-48 -44.5t-29.5 -66.5t-10 -81.5q0 -45 9 -84t28.5 -68.5t48.5 -46t70 -16.5 q38 0 64 13.5t54 39.5l30 -27q-23 -29 -56.5 -46.5t-79.5 -19.5v-110h-38v111z" unicode="¢"/>
<glyph glyph-name="sterling" d="M78 45q46 46 66.5 100.5t20.5 130.5h-89v41h85q-5 27 -13.5 48.5t-16 42t-13 40.5t-5.5 43q0 34 14 64.5t39.5 54t61 37.5t79.5 14q68 0 116.5 -23.5t78.5 -63.5l-38 -31q-26 33 -65.5 53t-90.5 20q-23 0 -48.5 -7t-47 -23t-35.5 -40.5t-14 -60.5q0 -17 6 -35.5 t13.5 -39.5t15.5 -44t12 -48h155v-42h-150q0 -11 -0.5 -20.5t-1.5 -20.5q-3 -53 -20.5 -100.5t-56.5 -90.5h374v-44h-432v45z" unicode="£"/>
<glyph glyph-name="currency" d="M57 533l29 30l69 -68q26 21 58.5 32.5t68.5 11.5q35 0 66 -11.5t59 -32.5l68 68l31 -31l-70 -67q21 -29 32.5 -60t11.5 -66t-11.5 -66t-31.5 -60l69 -64l-31 -33l-69 68q-30 -26 -61.5 -35t-63.5 -9t-63 9t-62 35l-69 -69l-31 32l69 66q-26 34 -35.5 65.5t-9.5 58.5 q0 34 12.5 67.5t32.5 60.5zM121 338q0 -33 12.5 -62t34 -50t50.5 -33.5t62 -12.5t61.5 12.5t50.5 33.5t34.5 50t12.5 62t-12.5 62t-34 50.5t-50.5 34t-62 12.5t-62 -12.5t-50.5 -34t-34 -50.5t-12.5 -62z" unicode="¤"/>
<glyph glyph-name="yen" d="M79 285h176l-54 95h-122v41h100l-129 230h57l189 -348l189 348h55l-129 -230h103v-41h-126l-54 -95h180v-40h-195v-245h-49v245h-191v40z" unicode="¥"/>
<glyph glyph-name="brokenbar" horiz-adv-x="213" unicode="¦" d="M90 -152v416h40v-416h-40zM90 327v421h40v-421h-40z"/>
<glyph glyph-name="section" horiz-adv-x="536" unicode="§" d="M337 253q28 11 47 30t19 49q0 22 -11 39t-30.5 29.5t-46.5 23t-58 20.5q-35 11 -64.5 24t-50.5 29.5t-33 37t-12 47.5q0 55 47 90t132 35q38 0 77 -7.5t74 -24.5l-18 -38q-36 16 -72 23.5t-62 7.5q-60 0 -95.5 -24.5t-35.5 -58.5q0 -29 28.5 -53t98.5 -47 q38 -12 70.5 -25t56.5 -30.5t38 -40t14 -54.5q0 -45 -26.5 -75t-70.5 -45zM219 363q-37 -9 -58.5 -29.5t-21.5 -45.5q0 -29 30 -53.5t100 -47.5q37 -12 71.5 -25t60.5 -30.5t41.5 -40.5t15.5 -55q0 -33 -15.5 -58t-42.5 -42t-62.5 -25.5t-74.5 -8.5q-43 0 -92 10.5t-89 30.5 l20 38q40 -19 84 -29.5t79 -10.5q24 0 50 5t47 16.5t34.5 29t13.5 41.5q0 22 -12.5 39t-33.5 30t-49.5 23.5t-60.5 20.5q-35 11 -64.5 24.5t-51.5 30t-34 37t-12 46.5q0 42 29.5 73.5t83.5 44.5z"/>
<glyph glyph-name="dieresis" horiz-adv-x="470" unicode="¨" d="M186 632q0 -13 -10 -22.5t-22 -9.5q-14 0 -23.5 9.5t-9.5 22.5q0 14 9.5 23.5t23.5 9.5q12 0 22 -9.5t10 -23.5zM372 632q0 -13 -9.5 -22.5t-22.5 -9.5t-23 9.5t-10 22.5q0 14 9.5 23.5t23.5 9.5q13 0 22.5 -9.5t9.5 -23.5z"/>
<glyph glyph-name="copyright" horiz-adv-x="741" unicode="©" d="M379 125q-37 0 -66.5 14t-50.5 40.5t-32 63t-11 81.5q0 46 11.5 83t32.5 63t50.5 40.5t65.5 14.5q76 0 120 -61l-29 -19q-18 23 -40 34.5t-51 11.5q-31 0 -54 -12.5t-38.5 -35t-23.5 -53t-8 -66.5t8 -66t23.5 -52t38.5 -34.5t54 -12.5q32 0 53.5 11t41.5 34l27 -19 q-28 -33 -59 -46.5t-63 -13.5zM375 628q-62 0 -115 -23.5t-92 -64t-61.5 -96t-22.5 -119.5t22.5 -119.5t61.5 -96.5t92 -64.5t115 -23.5q61 0 114.5 23.5t92.5 64.5t61.5 96.5t22.5 119.5t-22.5 119.5t-61.5 96t-92.5 64t-114.5 23.5zM375 -10q-69 0 -128.5 25.5t-103 70.5 t-68.5 106.5t-25 132.5q0 72 25 133.5t68.5 106.5t103 70.5t128.5 25.5t128 -25.5t103 -70.5t69 -106.5t25 -133.5q0 -71 -25 -132.5t-69 -106.5t-103 -70.5t-128 -25.5z"/>
<glyph glyph-name="ordfeminine" horiz-adv-x="320" unicode="ª" d="M250 404q-23 11 -44 17.5t-53 6.5q-35 0 -60.5 -17.5t-25.5 -51.5q0 -33 22.5 -51.5t60.5 -18.5q28 0 54 14t46 34v67zM171 592q58 0 88.5 -26.5t30.5 -77.5v-226h-40v35q-32 -26 -59.5 -33.5t-50.5 -7.5q-20 0 -40 5.5t-35.5 18t-25.5 31.5t-10 46q0 45 32.5 74.5 t92.5 29.5q21 0 44.5 -4t51.5 -18v42q0 39 -21.5 56.5t-60.5 17.5q-23 0 -44.5 -6t-43.5 -16q-2 4 -7 17t-7 17q26 12 51.5 18.5t53.5 6.5z"/>
<glyph glyph-name="guillemotleft" horiz-adv-x="442" unicode="«" d="M185 40l-133 205l133 205h49l-134 -205l134 -205h-49zM355 40l-134 205l134 205h48l-134 -205l134 -205h-48z"/>
<glyph glyph-name="logicalnot" d="M440 293h-338v45h383v-214h-45v169z" unicode="¬"/>
<glyph glyph-name="sfthyphen" horiz-adv-x="317" unicode="­" d="M52 285v51h212v-51h-212z"/>
<glyph glyph-name="registered" horiz-adv-x="519" unicode="®" d="M216 560v-92h65q23 0 34 12.5t11 33.5q0 22 -12.5 34t-32.5 12h-65zM279 443h-63v-90h-27v231h93q31 0 50.5 -17.5t19.5 -52.5q0 -44 -44 -67q1 -3 8 -17t14.5 -30t14 -30t8.5 -17h-31zM261 647q-36 0 -66.5 -14t-53 -38t-35.5 -56.5t-13 -69.5q0 -38 13 -70.5 t35.5 -56.5t53 -38t66.5 -14t67 14t53.5 38t35.5 56.5t13 70.5q0 37 -13 69.5t-35.5 56.5t-53.5 38t-67 14zM261 268q-41 0 -76 15.5t-61 42.5t-41 63.5t-15 79.5t15 79.5t41 63.5t61 42t76 15q42 0 77.5 -15t61.5 -42t40.5 -63.5t14.5 -79.5t-15 -79.5t-41 -63.5 t-61.5 -42.5t-76.5 -15.5z"/>
<glyph glyph-name="macron" horiz-adv-x="464" unicode="¯" d="M136 618v39h233v-39h-233z"/>
<glyph glyph-name="degree" horiz-adv-x="426" unicode="°" d="M311 513q0 21 -8 40t-21.5 33.5t-32.5 22.5t-40 8t-39.5 -8t-32.5 -22.5t-22 -33.5t-8 -40q0 -23 8 -42.5t22 -33.5t32.5 -22.5t39.5 -8.5q43 0 72.5 29.5t29.5 77.5zM343 513q0 -30 -10.5 -55t-28.5 -43.5t-42.5 -28.5t-52.5 -10t-52.5 10t-43 28.5t-29 43.5t-10.5 55 q0 29 10.5 54t29 43t43 28t52.5 10t52.5 -10t42.5 -28t28.5 -43t10.5 -54z"/>
<glyph glyph-name="plusminus" d="M101 84v42h385v-42h-385zM316 377v-171h-44v171h-171v44h171v181h44v-181h171v-44h-171z" unicode="±"/>
<glyph glyph-name="twosuperior" horiz-adv-x="383" unicode="²" d="M338 388v-39h-296q4 40 18.5 70.5t37 54.5t51 42.5t60.5 35.5q43 23 62 41.5t19 47.5q0 32 -26 49.5t-71 17.5q-26 0 -54.5 -11t-54.5 -28l-26 30q30 23 66 35.5t71 12.5q65 0 102.5 -27.5t37.5 -75.5q0 -42 -26 -69.5t-83 -58.5q-62 -33 -91 -61t-39 -67h242z"/>
<glyph glyph-name="threesuperior" horiz-adv-x="383" unicode="³" d="M341 462q0 -57 -44 -88t-114 -31q-43 0 -78 14t-62 36l28 32q24 -20 54.5 -31t57.5 -11q112 0 112 79q0 38 -26.5 55.5t-63.5 17.5h-35v38h39q35 0 56.5 20.5t21.5 47.5t-22.5 47.5t-75.5 20.5q-22 0 -50 -10t-49 -26l-25 29q27 22 61 33.5t68 11.5q66 0 102 -28.5 t36 -73.5q0 -24 -15 -50t-48 -40q20 -7 33.5 -18t22 -23.5t12.5 -26t4 -25.5z"/>
<glyph glyph-name="acute" horiz-adv-x="470" unicode="´" d="M232 564l-26 9l64 149l60 -12z"/>
<glyph glyph-name="paragraph" horiz-adv-x="471" unicode="¶" d="M400 -9q0 -42 -6 -74t-24.5 -54.5t-52.5 -36t-89 -19.5l-3 39q51 6 78.5 19.5t40.5 33.5t15.5 45.5t2.5 55.5v647h38v-656zM217 299q-38 0 -70 13.5t-55 37t-36 55.5t-13 68t13.5 67.5t36.5 55t55 37.5t69 14h91v-348h-91z"/>
<glyph glyph-name="periodcentered" horiz-adv-x="211" unicode="·" d="M146 292q0 -17 -11 -28t-28 -11q-16 0 -26.5 11t-10.5 28t10.5 28.5t26.5 11.5t27.5 -11.5t11.5 -28.5z"/>
<glyph glyph-name="cedilla" horiz-adv-x="450" unicode="¸" d="M240 -198q-12 0 -29.5 3t-40.5 12l9 26q15 -5 31.5 -8.5t30.5 -3.5q24 0 38.5 10t16.5 32q0 23 -18.5 35t-40.5 12h-5l-15 16l27 80l29 -1l-22 -65q25 -4 41 -12.5t25 -19t12.5 -22.5t3.5 -22q0 -12 -5 -25t-16.5 -23.5t-29 -17t-42.5 -6.5z"/>
<glyph glyph-name="onesuperior" horiz-adv-x="290" unicode="¹" d="M129 350v324h-50v31q30 3 41 12.5t16 23.5h37v-391h-44z"/>
<glyph glyph-name="ordmasculine" horiz-adv-x="343" unicode="º" d="M273 425q0 54 -26.5 92t-78.5 38q-25 0 -44 -10.5t-31.5 -28.5t-18.5 -41.5t-6 -49.5q0 -60 27 -96.5t76 -36.5q25 0 44 11t32 29t19.5 42t6.5 51zM315 425q0 -41 -11 -72.5t-30.5 -53t-46.5 -32.5t-58 -11q-30 0 -56 11.5t-45 33t-30 53t-11 71.5q0 41 11 72t30 52 t45.5 31.5t56.5 10.5q31 0 57.5 -11t46 -32t30.5 -52t11 -71z"/>
<glyph glyph-name="guillemotright" horiz-adv-x="442" unicode="»" d="M101 40h-48l134 205l-134 205h49l133 -205zM271 40h-49l134 205l-134 205h49l133 -205z"/>
<glyph glyph-name="onequarter" horiz-adv-x="805" unicode="¼" d="M429 128h181v203zM144 260v324h-50v31q30 3 41 12.5t16 23.5h37v-391h-44zM175 -26h-45l404 704h45zM653 0h-43v91h-240v33l240 267h43v-263h57v-37h-57v-91z"/>
<glyph glyph-name="onehalf" horiz-adv-x="805" unicode="½" d="M140 260v324h-50v31q30 3 41 12.5t16 23.5h37v-391h-44zM152 -26h-45l404 704h45zM715 39v-39h-296q4 40 18.5 70.5t37 54.5t51 42.5t60.5 35.5q43 22 62 41t19 48q0 32 -26 49.5t-71 17.5q-26 0 -54.5 -11t-54.5 -28l-26 30q30 23 66 35t71 12q65 0 102.5 -27.5 t37.5 -74.5q0 -42 -26 -69.5t-83 -58.5q-31 -17 -53.5 -32t-37.5 -30t-24.5 -31t-14.5 -35h242z"/>
<glyph glyph-name="threequarters" horiz-adv-x="805" unicode="¾" d="M485 128h181v203zM252 -26h-45l404 704h45zM342 372q0 -57 -44 -88t-114 -31q-43 0 -78 14t-62 36l28 32q24 -20 54.5 -31t57.5 -11q112 0 112 79q0 38 -26.5 55.5t-63.5 17.5h-35v38h39q35 0 56.5 20.5t21.5 47.5t-22.5 47.5t-75.5 20.5q-22 0 -50 -10t-49 -26l-25 29 q27 22 61 33.5t68 11.5q66 0 102 -28.5t36 -73.5q0 -24 -15 -50t-48 -40q20 -7 33.5 -18t22 -23.5t12.5 -26t4 -25.5zM709 0h-43v91h-240v33l240 267h43v-263h57v-37h-57v-91z"/>
<glyph glyph-name="questiondown" horiz-adv-x="470" unicode="¿" d="M267 449q0 -17 -11.5 -27.5t-26.5 -10.5t-25.5 11t-10.5 27t11 26.5t26 10.5t26 -10t11 -27zM33 -12q0 35 18 69t38 55t39 39.5t35 39.5t26.5 45t13.5 55h47q-2 -31 -11.5 -55.5t-23.5 -46t-32.5 -42t-39.5 -43.5q-10 -10 -20.5 -23.5t-19.5 -28.5t-14.5 -31t-5.5 -32 q0 -17 7 -38.5t23.5 -40t45 -31.5t70.5 -13q39 0 66 13t44.5 32t27 40.5t13.5 38.5h48q-6 -40 -24.5 -71.5t-45.5 -53t-61.5 -32.5t-72.5 -11q-43 0 -78 13t-60 35.5t-39 53t-14 64.5z"/>
<glyph glyph-name="Agrave" horiz-adv-x="592" unicode="À" d="M141 759l43 43l128 -85l-16 -22zM448 208l-110 281q-11 26 -20.5 51.5t-20.5 53.5h-3l-71 -186l-78 -200h303zM128 162q-15 -41 -31 -81t-31 -81h-53l257 651h54l257 -651h-52q-16 41 -32 81t-31 81h-338z"/>
<glyph glyph-name="Aacute" horiz-adv-x="592" unicode="Á" d="M294 695l-16 22l128 85l43 -43zM448 208l-110 281q-11 26 -20.5 51.5t-20.5 53.5h-3l-71 -186l-78 -200h303zM128 162q-15 -41 -31 -81t-31 -81h-53l257 651h54l257 -651h-52q-16 41 -32 81t-31 81h-338z"/>
<glyph glyph-name="Acircumflex" horiz-adv-x="592" unicode="Â" d="M296 766l-122 -72l-18 15l115 98h53l114 -100l-18 -15zM448 208l-110 281q-11 26 -20.5 51.5t-20.5 53.5h-3l-71 -186l-78 -200h303zM128 162q-15 -41 -31 -81t-31 -81h-53l257 651h54l257 -651h-52q-16 41 -32 81t-31 81h-338z"/>
<glyph glyph-name="Atilde" horiz-adv-x="592" unicode="Ã" d="M444 771q-15 -32 -39 -46t-50 -14q-17 0 -33 5.5t-31.5 12t-30.5 12t-29 5.5q-18 0 -32.5 -6.5t-31.5 -25.5l-23 15q17 32 40 45t47 13q17 0 33 -6t31 -12.5t30.5 -12.5t32.5 -6t31 7.5t30 27.5zM448 208l-110 281q-11 26 -20.5 51.5t-20.5 53.5h-3l-71 -186l-78 -200 h303zM128 162q-15 -41 -31 -81t-31 -81h-53l257 651h54l257 -651h-52q-16 41 -32 81t-31 81h-338z"/>
<glyph glyph-name="Adieresis" horiz-adv-x="592" unicode="Ä" d="M236 751q0 -13 -10 -22.5t-22 -9.5q-14 0 -23.5 9.5t-9.5 22.5q0 14 9.5 23.5t23.5 9.5q12 0 22 -9.5t10 -23.5zM422 751q0 -13 -9.5 -22.5t-22.5 -9.5t-23 9.5t-10 22.5q0 14 9.5 23.5t23.5 9.5q13 0 22.5 -9.5t9.5 -23.5zM448 208l-110 281q-11 26 -20.5 51.5 t-20.5 53.5h-3l-71 -186l-78 -200h303zM128 162q-15 -41 -31 -81t-31 -81h-53l257 651h54l257 -651h-52q-16 41 -32 81t-31 81h-338z"/>
<glyph glyph-name="Aring" horiz-adv-x="592" unicode="Å" d="M349 751q0 22 -15 37t-37 15q-23 0 -38 -15.5t-15 -36.5q0 -22 15 -37.5t38 -15.5q22 0 37 15.5t15 37.5zM377 751q0 -35 -23.5 -57.5t-56.5 -22.5q-34 0 -57 22.5t-23 57.5q0 34 23 56.5t57 22.5q33 0 56.5 -22.5t23.5 -56.5zM448 208l-110 281q-11 26 -20.5 51.5 t-20.5 53.5h-3l-71 -186l-78 -200h303zM128 162q-15 -41 -31 -81t-31 -81h-53l257 651h54l257 -651h-52q-16 41 -32 81t-31 81h-338z"/>
<glyph glyph-name="AE" horiz-adv-x="904" unicode="Æ" d="M231 243h239v359zM471 197h-268l-131 -197h-56l431 651h420v-46h-347v-233h249v-46h-249v-280h361v-46h-410v197z"/>
<glyph glyph-name="Ccedilla" horiz-adv-x="537" unicode="Ç" d="M291 -198q-12 0 -29.5 3t-40.5 12l9 26q15 -5 31.5 -8.5t30.5 -3.5q24 0 38.5 10t16.5 32q0 23 -18.5 35t-40.5 12h-5l-15 16l18 55q-55 5 -99 30t-75.5 68t-48.5 102.5t-17 133.5q0 76 19.5 138.5t54.5 106t84 67.5t108 24q64 0 110.5 -19.5t81.5 -59.5l-35 -35 q-32 36 -69.5 52.5t-87.5 16.5q-52 0 -92 -22.5t-67.5 -61.5t-41.5 -92t-14 -114t13.5 -114t40.5 -92t67.5 -61.5t94.5 -22.5q95 0 159 73l36 -32q-35 -41 -82.5 -63.5t-110.5 -23.5l-13 -40q25 -4 41 -12.5t25 -19t12.5 -22.5t3.5 -22q0 -12 -5 -25t-16.5 -23.5t-29 -17 t-42.5 -6.5z"/>
<glyph glyph-name="Egrave" horiz-adv-x="492" unicode="È" d="M150 759l43 43l128 -85l-16 -22zM66 0v651h396v-46h-346v-233h248v-46h-248v-280h360v-46h-410z"/>
<glyph glyph-name="Eacute" horiz-adv-x="492" unicode="É" d="M246 695l-16 22l128 85l43 -43zM66 0v651h396v-46h-346v-233h248v-46h-248v-280h360v-46h-410z"/>
<glyph glyph-name="Ecircumflex" horiz-adv-x="492" unicode="Ê" d="M267 766l-122 -72l-18 15l115 98h53l114 -100l-18 -15zM66 0v651h396v-46h-346v-233h248v-46h-248v-280h360v-46h-410z"/>
<glyph glyph-name="Edieresis" horiz-adv-x="492" unicode="Ë" d="M208 743q0 -13 -10 -22.5t-22 -9.5q-14 0 -23.5 9.5t-9.5 22.5q0 14 9.5 23.5t23.5 9.5q12 0 22 -9.5t10 -23.5zM394 743q0 -13 -9.5 -22.5t-22.5 -9.5t-23 9.5t-10 22.5q0 14 9.5 23.5t23.5 9.5q13 0 22.5 -9.5t9.5 -23.5zM66 0v651h396v-46h-346v-233h248v-46h-248 v-280h360v-46h-410z"/>
<glyph glyph-name="Igrave" horiz-adv-x="224" unicode="Ì" d="M-39 759l43 43l128 -85l-16 -22zM87 0v651h50v-651h-50z"/>
<glyph glyph-name="Iacute" horiz-adv-x="224" unicode="Í" d="M111 695l-16 22l128 85l43 -43zM87 0v651h50v-651h-50z"/>
<glyph glyph-name="Icircumflex" horiz-adv-x="224" unicode="Î" d="M112 766l-122 -72l-18 15l115 98h53l114 -100l-18 -15zM87 0v651h50v-651h-50z"/>
<glyph glyph-name="Idieresis" horiz-adv-x="224" unicode="Ï" d="M55 743q0 -13 -10 -22.5t-22 -9.5q-14 0 -23.5 9.5t-9.5 22.5q0 14 9.5 23.5t23.5 9.5q12 0 22 -9.5t10 -23.5zM241 743q0 -13 -9.5 -22.5t-22.5 -9.5t-23 9.5t-10 22.5q0 14 9.5 23.5t23.5 9.5q13 0 22.5 -9.5t9.5 -23.5zM87 0v651h50v-651h-50z"/>
<glyph glyph-name="Eth" horiz-adv-x="594" unicode="Ð" d="M122 605v-263h165v-34h-165v-263h103q68 0 118 20.5t83 58t49.5 88.5t16.5 113q0 61 -16.5 112.5t-49.5 88.5t-83 58t-118 21h-103zM73 0v308h-64v34h64v309h152q65 0 123 -18t101.5 -57.5t69 -101.5t25.5 -149t-26 -149t-70 -101t-102 -57t-122 -18h-151z"/>
<glyph glyph-name="Ntilde" horiz-adv-x="590" unicode="Ñ" d="M445 769q-15 -32 -39 -46t-50 -14q-17 0 -33 5.5t-31.5 12t-30.5 12t-29 5.5q-18 0 -32.5 -6.5t-31.5 -25.5l-23 15q17 32 40 45t47 13q17 0 33 -6t31 -12.5t30.5 -12.5t32.5 -6t31 7.5t30 27.5zM478 0q-9 14 -28.5 44.5t-45.5 70.5t-56.5 87t-61 95t-60 93.5t-53 82.5 t-39.5 62t-21 33h-1v-568h-49v651h52l242 -372q30 -48 60.5 -96.5t59.5 -92.5h1v561h49v-651h-49z"/>
<glyph glyph-name="Ograve" horiz-adv-x="619" unicode="Ò" d="M181 759l43 43l128 -85l-16 -22zM522 325q0 61 -13 114.5t-39.5 93t-66.5 62t-94 22.5q-53 0 -93 -22t-66.5 -61t-40 -92.5t-13.5 -116.5q0 -58 13 -111t39.5 -93t66.5 -63.5t94 -23.5q55 0 95 23.5t66 63.5t39 93t13 111zM573 325q0 -77 -18.5 -138.5t-53 -105.5 t-83.5 -67.5t-109 -23.5q-62 0 -110.5 24t-82.5 68t-52 105.5t-18 137.5q0 75 18 136.5t52 105.5t82.5 68.5t110.5 24.5q60 0 109 -24t83.5 -67.5t53 -105.5t18.5 -138z"/>
<glyph glyph-name="Oacute" horiz-adv-x="619" unicode="Ó" d="M280 695l-16 22l128 85l43 -43zM522 325q0 61 -13 114.5t-39.5 93t-66.5 62t-94 22.5q-53 0 -93 -22t-66.5 -61t-40 -92.5t-13.5 -116.5q0 -58 13 -111t39.5 -93t66.5 -63.5t94 -23.5q55 0 95 23.5t66 63.5t39 93t13 111zM573 325q0 -77 -18.5 -138.5t-53 -105.5 t-83.5 -67.5t-109 -23.5q-62 0 -110.5 24t-82.5 68t-52 105.5t-18 137.5q0 75 18 136.5t52 105.5t82.5 68.5t110.5 24.5q60 0 109 -24t83.5 -67.5t53 -105.5t18.5 -138z"/>
<glyph glyph-name="Ocircumflex" horiz-adv-x="619" unicode="Ô" d="M314 766l-122 -72l-18 15l115 98h53l114 -100l-18 -15zM522 325q0 61 -13 114.5t-39.5 93t-66.5 62t-94 22.5q-53 0 -93 -22t-66.5 -61t-40 -92.5t-13.5 -116.5q0 -58 13 -111t39.5 -93t66.5 -63.5t94 -23.5q55 0 95 23.5t66 63.5t39 93t13 111zM573 325 q0 -77 -18.5 -138.5t-53 -105.5t-83.5 -67.5t-109 -23.5q-62 0 -110.5 24t-82.5 68t-52 105.5t-18 137.5q0 75 18 136.5t52 105.5t82.5 68.5t110.5 24.5q60 0 109 -24t83.5 -67.5t53 -105.5t18.5 -138z"/>
<glyph glyph-name="Otilde" horiz-adv-x="619" unicode="Õ" d="M457 772q-15 -32 -39 -46t-50 -14q-17 0 -33 5.5t-31.5 12t-30.5 12t-29 5.5q-18 0 -32.5 -6.5t-31.5 -25.5l-23 15q17 32 40 45t47 13q17 0 33 -6t31 -12.5t30.5 -12.5t32.5 -6t31 7.5t30 27.5zM522 325q0 61 -13 114.5t-39.5 93t-66.5 62t-94 22.5q-53 0 -93 -22 t-66.5 -61t-40 -92.5t-13.5 -116.5q0 -58 13 -111t39.5 -93t66.5 -63.5t94 -23.5q55 0 95 23.5t66 63.5t39 93t13 111zM573 325q0 -77 -18.5 -138.5t-53 -105.5t-83.5 -67.5t-109 -23.5q-62 0 -110.5 24t-82.5 68t-52 105.5t-18 137.5q0 75 18 136.5t52 105.5t82.5 68.5 t110.5 24.5q60 0 109 -24t83.5 -67.5t53 -105.5t18.5 -138z"/>
<glyph glyph-name="Odieresis" horiz-adv-x="619" unicode="Ö" d="M250 746q0 -13 -10 -22.5t-22 -9.5q-14 0 -23.5 9.5t-9.5 22.5q0 14 9.5 23.5t23.5 9.5q12 0 22 -9.5t10 -23.5zM436 746q0 -13 -9.5 -22.5t-22.5 -9.5t-23 9.5t-10 22.5q0 14 9.5 23.5t23.5 9.5q13 0 22.5 -9.5t9.5 -23.5zM522 325q0 61 -13 114.5t-39.5 93t-66.5 62 t-94 22.5q-53 0 -93 -22t-66.5 -61t-40 -92.5t-13.5 -116.5q0 -58 13 -111t39.5 -93t66.5 -63.5t94 -23.5q55 0 95 23.5t66 63.5t39 93t13 111zM573 325q0 -77 -18.5 -138.5t-53 -105.5t-83.5 -67.5t-109 -23.5q-62 0 -110.5 24t-82.5 68t-52 105.5t-18 137.5q0 75 18 136.5 t52 105.5t82.5 68.5t110.5 24.5q60 0 109 -24t83.5 -67.5t53 -105.5t18.5 -138z"/>
<glyph glyph-name="multiply" d="M325 316l142 -141q-5 -5 -15.5 -16t-15.5 -16l-142 141l-145 -145l-32 32l145 145l-142 142l32 31l142 -141l146 146l32 -31z" unicode="×"/>
<glyph glyph-name="Oslash" horiz-adv-x="619" unicode="Ø" d="M96 325q0 -55 11.5 -104.5t34.5 -88.5l316 415q-26 33 -63 51.5t-86 18.5q-53 0 -93 -22t-66.5 -61t-40 -92.5t-13.5 -116.5zM522 325q0 57 -11 106.5t-34 88.5l-318 -414q26 -34 63.5 -53t86.5 -19q55 0 95 23.5t66 63.5t39 93t13 111zM573 325q0 -77 -18.5 -138.5 t-53 -105.5t-83.5 -67.5t-109 -23.5q-57 0 -102 19.5t-78 56.5l-58 -76l-24 18l62 82q-63 89 -63 235q0 75 18 136.5t52 105.5t82.5 68.5t110.5 24.5q54 0 99 -19.5t79 -55.5l63 82l25 -20l-67 -88q31 -44 48 -103t17 -131z"/>
<glyph glyph-name="Ugrave" horiz-adv-x="597" unicode="Ù" d="M183 759l43 43l128 -85l-16 -22zM537 267q0 -141 -62 -209t-177 -68q-113 0 -173 69.5t-60 209.5v382h49v-379q0 -53 11.5 -96.5t34.5 -74.5t58 -48t82 -17q49 0 84 16.5t58 46.5t34 72.5t11 94.5v385h50v-384z"/>
<glyph glyph-name="Uacute" horiz-adv-x="597" unicode="Ú" d="M270 695l-16 22l128 85l43 -43zM537 267q0 -141 -62 -209t-177 -68q-113 0 -173 69.5t-60 209.5v382h49v-379q0 -53 11.5 -96.5t34.5 -74.5t58 -48t82 -17q49 0 84 16.5t58 46.5t34 72.5t11 94.5v385h50v-384z"/>
<glyph glyph-name="Ucircumflex" horiz-adv-x="597" unicode="Û" d="M304 766l-122 -72l-18 15l115 98h53l114 -100l-18 -15zM537 267q0 -141 -62 -209t-177 -68q-113 0 -173 69.5t-60 209.5v382h49v-379q0 -53 11.5 -96.5t34.5 -74.5t58 -48t82 -17q49 0 84 16.5t58 46.5t34 72.5t11 94.5v385h50v-384z"/>
<glyph glyph-name="Udieresis" horiz-adv-x="597" unicode="Ü" d="M244 746q0 -13 -10 -22.5t-22 -9.5q-14 0 -23.5 9.5t-9.5 22.5q0 14 9.5 23.5t23.5 9.5q12 0 22 -9.5t10 -23.5zM430 746q0 -13 -9.5 -22.5t-22.5 -9.5t-23 9.5t-10 22.5q0 14 9.5 23.5t23.5 9.5q13 0 22.5 -9.5t9.5 -23.5zM537 267q0 -141 -62 -209t-177 -68 q-113 0 -173 69.5t-60 209.5v382h49v-379q0 -53 11.5 -96.5t34.5 -74.5t58 -48t82 -17q49 0 84 16.5t58 46.5t34 72.5t11 94.5v385h50v-384z"/>
<glyph glyph-name="Yacute" horiz-adv-x="530" unicode="Ý" d="M249 695l-16 22l128 85l43 -43zM289 234v-234h-49v234l-229 417h55l198 -370l200 370h54z"/>
<glyph glyph-name="Thorn" horiz-adv-x="547" unicode="Þ" d="M116 479v-297h209q72 0 110 39.5t38 109.5q0 72 -40.5 110t-106.5 38h-210zM524 332q0 -49 -15 -85.5t-42 -61t-64.5 -37t-83.5 -12.5h-203v-136h-49v651h50v-127h209q43 0 79.5 -12t63 -36t41 -60t14.5 -84z"/>
<glyph glyph-name="germandbls" horiz-adv-x="491" unicode="ß" d="M251 392q16 2 35 11.5t35.5 25.5t27 38t10.5 49q0 21 -8 42.5t-23 39t-37.5 28t-52.5 10.5t-53.5 -12t-39 -32t-23.5 -46t-8 -53v-496l-45 -21v513q0 39 12 73t34 59t53 39.5t70 14.5q38 0 68.5 -12.5t52 -34.5t33 -50.5t11.5 -60.5q0 -18 -5 -38t-16.5 -39t-30 -35.5 t-45.5 -27.5v-2q30 -5 56 -21.5t44.5 -41t29.5 -56t11 -67.5q0 -42 -12.5 -78.5t-35.5 -63.5t-56 -43t-75 -16q-11 0 -24.5 1.5t-22.5 3.5l8 37q19 -3 35 -3q33 0 59 14t43 36t26 50t9 57q0 34 -10.5 64.5t-30 53.5t-47.5 36.5t-62 15.5v38z"/>
<glyph glyph-name="agrave" horiz-adv-x="461" unicode="à" d="M155 709l60 12l70 -148l-26 -9zM361 216q-36 20 -69.5 31t-79.5 11q-28 0 -52 -7.5t-42 -22.5t-28 -36.5t-10 -49.5q0 -56 33.5 -85t93.5 -29q49 2 86.5 23.5t67.5 52.5v112zM361 57h-1q-24 -23 -46.5 -36t-43.5 -19.5t-40 -8.5t-37 -2q-29 0 -57 8t-50.5 26t-36.5 46 t-14 69q0 33 12 61.5t35 49.5t56.5 32.5t75.5 11.5q32 0 69 -7.5t78 -31.5v78q0 66 -33 93.5t-96 27.5q-35 0 -67.5 -8.5t-61.5 -22.5l-16 39q34 15 70 24t81 9q81 0 125 -38t44 -114v-344h-46v57z"/>
<glyph glyph-name="aacute" horiz-adv-x="461" unicode="á" d="M247 564l-26 9l64 149l60 -12zM361 216q-36 20 -69.5 31t-79.5 11q-28 0 -52 -7.5t-42 -22.5t-28 -36.5t-10 -49.5q0 -56 33.5 -85t93.5 -29q49 2 86.5 23.5t67.5 52.5v112zM361 57h-1q-24 -23 -46.5 -36t-43.5 -19.5t-40 -8.5t-37 -2q-29 0 -57 8t-50.5 26t-36.5 46 t-14 69q0 33 12 61.5t35 49.5t56.5 32.5t75.5 11.5q32 0 69 -7.5t78 -31.5v78q0 66 -33 93.5t-96 27.5q-35 0 -67.5 -8.5t-61.5 -22.5l-16 39q34 15 70 24t81 9q81 0 125 -38t44 -114v-344h-46v57z"/>
<glyph glyph-name="acircumflex" horiz-adv-x="461" unicode="â" d="M248 664l-122 -89l-18 15l115 115h53l114 -117l-17 -15zM361 216q-36 20 -69.5 31t-79.5 11q-28 0 -52 -7.5t-42 -22.5t-28 -36.5t-10 -49.5q0 -56 33.5 -85t93.5 -29q49 2 86.5 23.5t67.5 52.5v112zM361 57h-1q-24 -23 -46.5 -36t-43.5 -19.5t-40 -8.5t-37 -2 q-29 0 -57 8t-50.5 26t-36.5 46t-14 69q0 33 12 61.5t35 49.5t56.5 32.5t75.5 11.5q32 0 69 -7.5t78 -31.5v78q0 66 -33 93.5t-96 27.5q-35 0 -67.5 -8.5t-61.5 -22.5l-16 39q34 15 70 24t81 9q81 0 125 -38t44 -114v-344h-46v57z"/>
<glyph glyph-name="atilde" horiz-adv-x="461" unicode="ã" d="M405 650q-15 -32 -39 -46t-50 -14q-17 0 -33 5.5t-31.5 12t-30.5 12t-29 5.5q-18 0 -32.5 -6.5t-31.5 -25.5l-23 15q17 32 40 45t47 13q17 0 33 -6t31 -12.5t30.5 -12.5t32.5 -6t31 7.5t30 27.5zM361 216q-36 20 -69.5 31t-79.5 11q-28 0 -52 -7.5t-42 -22.5t-28 -36.5 t-10 -49.5q0 -56 33.5 -85t93.5 -29q49 2 86.5 23.5t67.5 52.5v112zM361 57h-1q-24 -23 -46.5 -36t-43.5 -19.5t-40 -8.5t-37 -2q-29 0 -57 8t-50.5 26t-36.5 46t-14 69q0 33 12 61.5t35 49.5t56.5 32.5t75.5 11.5q32 0 69 -7.5t78 -31.5v78q0 66 -33 93.5t-96 27.5 q-35 0 -67.5 -8.5t-61.5 -22.5l-16 39q34 15 70 24t81 9q81 0 125 -38t44 -114v-344h-46v57z"/>
<glyph glyph-name="adieresis" horiz-adv-x="461" unicode="ä" d="M190 632q0 -13 -10 -22.5t-22 -9.5q-14 0 -23.5 9.5t-9.5 22.5q0 14 9.5 23.5t23.5 9.5q12 0 22 -9.5t10 -23.5zM376 632q0 -13 -9.5 -22.5t-22.5 -9.5t-23 9.5t-10 22.5q0 14 9.5 23.5t23.5 9.5q13 0 22.5 -9.5t9.5 -23.5zM361 216q-36 20 -69.5 31t-79.5 11 q-28 0 -52 -7.5t-42 -22.5t-28 -36.5t-10 -49.5q0 -56 33.5 -85t93.5 -29q49 2 86.5 23.5t67.5 52.5v112zM361 57h-1q-24 -23 -46.5 -36t-43.5 -19.5t-40 -8.5t-37 -2q-29 0 -57 8t-50.5 26t-36.5 46t-14 69q0 33 12 61.5t35 49.5t56.5 32.5t75.5 11.5q32 0 69 -7.5 t78 -31.5v78q0 66 -33 93.5t-96 27.5q-35 0 -67.5 -8.5t-61.5 -22.5l-16 39q34 15 70 24t81 9q81 0 125 -38t44 -114v-344h-46v57z"/>
<glyph glyph-name="aring" horiz-adv-x="461" unicode="å" d="M303 630q0 22 -15 37t-37 15q-23 0 -38 -15.5t-15 -36.5q0 -22 15 -37.5t38 -15.5q22 0 37 15.5t15 37.5zM331 630q0 -35 -23.5 -57.5t-56.5 -22.5q-34 0 -57 22.5t-23 57.5q0 34 23 56.5t57 22.5q33 0 56.5 -22.5t23.5 -56.5zM361 216q-36 20 -69.5 31t-79.5 11 q-28 0 -52 -7.5t-42 -22.5t-28 -36.5t-10 -49.5q0 -56 33.5 -85t93.5 -29q49 2 86.5 23.5t67.5 52.5v112zM361 57h-1q-24 -23 -46.5 -36t-43.5 -19.5t-40 -8.5t-37 -2q-29 0 -57 8t-50.5 26t-36.5 46t-14 69q0 33 12 61.5t35 49.5t56.5 32.5t75.5 11.5q32 0 69 -7.5 t78 -31.5v78q0 66 -33 93.5t-96 27.5q-35 0 -67.5 -8.5t-61.5 -22.5l-16 39q34 15 70 24t81 9q81 0 125 -38t44 -114v-344h-46v57z"/>
<glyph glyph-name="ae" horiz-adv-x="798" unicode="æ" d="M715 261q0 39 -9 74t-28 61.5t-48 42t-69 15.5q-30 0 -56 -14t-46 -39.5t-32.5 -61t-14.5 -78.5h303zM386 121q-8 20 -13 46.5t-6 54.5q-35 16 -71 26t-77 10q-28 0 -52.5 -7.5t-43 -22t-29.5 -36t-11 -49.5q0 -56 34.5 -86.5t94.5 -30.5q46 0 92 25t82 70zM564 494 q46 0 82.5 -18t61.5 -50t38.5 -76.5t13.5 -97.5v-27h-348q1 -49 13.5 -85.5t34 -61t49.5 -36.5t60 -12t63 13t57 36l28 -30q-38 -33 -73.5 -46t-80.5 -13q-48 0 -90.5 22.5t-70.5 73.5q-33 -33 -61.5 -52.5t-53 -29t-46.5 -12t-43 -2.5q-29 0 -57 8.5t-50.5 26.5t-36.5 46.5 t-14 69.5q0 33 12 61t35.5 48.5t57 32t75.5 11.5q33 0 69 -7.5t78 -26.5v29t1 32v10q0 58 -33.5 91.5t-96.5 33.5q-36 0 -65.5 -8t-58.5 -22l-16 39q34 15 67 23.5t78 8.5q68 0 107.5 -31t51.5 -83q23 52 67 81.5t95 29.5z"/>
<glyph glyph-name="ccedilla" horiz-adv-x="420" unicode="ç" d="M226 -199q-12 0 -29.5 3t-40.5 12l9 26q15 -5 31.5 -8.5t30.5 -3.5q24 0 38.5 10t16.5 32q0 23 -18.5 35t-40.5 12h-5l-15 16l19 56q-36 3 -68.5 21t-56.5 49.5t-38 77t-14 104.5q0 63 15.5 110t42.5 79t63 48t76 16q45 0 80.5 -13.5t67.5 -44.5l-31 -32q-29 27 -58.5 38 t-61.5 11q-35 0 -62 -17t-46 -45.5t-29 -67.5t-10 -82q0 -45 10 -83.5t29.5 -67t47.5 -44.5t64 -16q35 0 61.5 12t55.5 38l30 -29q-26 -28 -58.5 -44.5t-80.5 -18.5l-14 -41q25 -4 41 -12.5t25 -19t12.5 -22.5t3.5 -22q0 -12 -5 -25t-16.5 -23.5t-29 -17t-42.5 -6.5z"/>
<glyph glyph-name="egrave" horiz-adv-x="473" unicode="è" d="M154 709l60 12l70 -148l-26 -9zM393 263q0 39 -9 74t-27.5 61.5t-47.5 42t-69 15.5q-31 0 -57.5 -14t-46 -39.5t-32 -61t-14.5 -78.5h303zM242 496q46 0 82.5 -17.5t62 -49.5t38.5 -77t13 -99v-27h-348q1 -49 14.5 -85.5t35 -61t49.5 -37t60 -12.5t63 13t57 36l27 -30 q-65 -59 -153 -59q-39 0 -74.5 15t-63.5 46.5t-44.5 78.5t-16.5 112q0 59 15 106t42 80t63 50.5t78 17.5z"/>
<glyph glyph-name="eacute" horiz-adv-x="473" unicode="é" d="M243 564l-26 9l64 149l60 -12zM393 263q0 39 -9 74t-27.5 61.5t-47.5 42t-69 15.5q-31 0 -57.5 -14t-46 -39.5t-32 -61t-14.5 -78.5h303zM242 496q46 0 82.5 -17.5t62 -49.5t38.5 -77t13 -99v-27h-348q1 -49 14.5 -85.5t35 -61t49.5 -37t60 -12.5t63 13t57 36l27 -30 q-65 -59 -153 -59q-39 0 -74.5 15t-63.5 46.5t-44.5 78.5t-16.5 112q0 59 15 106t42 80t63 50.5t78 17.5z"/>
<glyph glyph-name="ecircumflex" horiz-adv-x="473" unicode="ê" d="M247 664l-122 -89l-18 15l115 115h53l114 -117l-17 -15zM393 263q0 39 -9 74t-27.5 61.5t-47.5 42t-69 15.5q-31 0 -57.5 -14t-46 -39.5t-32 -61t-14.5 -78.5h303zM242 496q46 0 82.5 -17.5t62 -49.5t38.5 -77t13 -99v-27h-348q1 -49 14.5 -85.5t35 -61t49.5 -37 t60 -12.5t63 13t57 36l27 -30q-65 -59 -153 -59q-39 0 -74.5 15t-63.5 46.5t-44.5 78.5t-16.5 112q0 59 15 106t42 80t63 50.5t78 17.5z"/>
<glyph glyph-name="edieresis" horiz-adv-x="473" unicode="ë" d="M189 629q0 -13 -10 -22.5t-22 -9.5q-14 0 -23.5 9.5t-9.5 22.5q0 14 9.5 23.5t23.5 9.5q12 0 22 -9.5t10 -23.5zM375 629q0 -13 -9.5 -22.5t-22.5 -9.5t-23 9.5t-10 22.5q0 14 9.5 23.5t23.5 9.5q13 0 22.5 -9.5t9.5 -23.5zM393 263q0 39 -9 74t-27.5 61.5t-47.5 42 t-69 15.5q-31 0 -57.5 -14t-46 -39.5t-32 -61t-14.5 -78.5h303zM242 496q46 0 82.5 -17.5t62 -49.5t38.5 -77t13 -99v-27h-348q1 -49 14.5 -85.5t35 -61t49.5 -37t60 -12.5t63 13t57 36l27 -30q-65 -59 -153 -59q-39 0 -74.5 15t-63.5 46.5t-44.5 78.5t-16.5 112 q0 59 15 106t42 80t63 50.5t78 17.5z"/>
<glyph glyph-name="igrave" horiz-adv-x="210" unicode="ì" d="M3 709l60 12l70 -148l-26 -9zM82 0v488h47v-488h-47z"/>
<glyph glyph-name="iacute" horiz-adv-x="210" unicode="í" d="M107 564l-26 9l64 149l60 -12zM82 0v488h47v-488h-47z"/>
<glyph glyph-name="icircumflex" horiz-adv-x="262" unicode="î" d="M130 654l-122 -89l-18 15l115 115h53l114 -117l-17 -15zM109 0v488h47v-488h-47z"/>
<glyph glyph-name="idieresis" horiz-adv-x="231" unicode="ï" d="M55 632q0 -13 -10 -22.5t-22 -9.5q-14 0 -23.5 9.5t-9.5 22.5q0 14 9.5 23.5t23.5 9.5q12 0 22 -9.5t10 -23.5zM241 632q0 -13 -9.5 -22.5t-22.5 -9.5t-23 9.5t-10 22.5q0 14 9.5 23.5t23.5 9.5q13 0 22.5 -9.5t9.5 -23.5zM91 0v488h47v-488h-47z"/>
<glyph glyph-name="eth" horiz-adv-x="501" unicode="ð" d="M407 241q0 43 -12.5 78.5t-34 61t-50.5 39t-62 13.5q-37 0 -66 -14t-49.5 -39.5t-31 -61t-10.5 -77.5q0 -47 11.5 -86t32.5 -67t50 -43t64 -15q37 0 66.5 17t50 46t31 67.5t10.5 80.5zM396 711l25 -20l-59 -68q22 -24 40.5 -52.5t31 -66t19.5 -87t7 -115.5 q0 -71 -13.5 -128.5t-39.5 -98.5t-65.5 -63t-91.5 -22q-47 0 -84.5 18t-63.5 50.5t-40.5 78.5t-14.5 103q0 58 16.5 102t44.5 73t64.5 44t76.5 15q19 0 41.5 -5.5t45 -17.5t42 -30.5t31.5 -43.5h4q-1 60 -21 116t-58 97l-58 -68l-25 21l58 68q-52 42 -131 51l5 41 q47 -5 84.5 -19t71.5 -40z"/>
<glyph glyph-name="ntilde" horiz-adv-x="466" unicode="ñ" d="M384 650q-15 -32 -39 -46t-50 -14q-17 0 -33 5.5t-31.5 12t-30.5 12t-29 5.5q-18 0 -32.5 -6.5t-31.5 -25.5l-23 15q17 32 40 45t47 13q17 0 33 -6t31 -12.5t30.5 -12.5t32.5 -6t31 7.5t30 27.5zM419 0h-47v293q0 85 -32.5 123.5t-98.5 38.5q-26 0 -48 -9.5t-40 -26 t-30.5 -38t-18.5 -45.5q-6 -21 -6 -46v-290h-46v489h46v-87l2 -1q14 26 32.5 44t39 29.5t41.5 16.5t39 5q83 0 125 -47.5t42 -148.5v-300z"/>
<glyph glyph-name="ograve" horiz-adv-x="497" unicode="ò" d="M143 709l60 12l70 -148l-26 -9zM407 244q0 44 -10 83t-30 67.5t-50.5 45t-71.5 16.5q-38 0 -67 -17t-48.5 -45.5t-29 -66.5t-9.5 -80q0 -48 10.5 -88t31 -68.5t50 -44t67.5 -15.5q39 0 68 17.5t49 46.5t30 68t10 81zM453 247q0 -62 -16 -109.5t-43.5 -80.5t-65.5 -50 t-83 -17q-43 0 -79.5 17t-63.5 50t-42.5 80t-15.5 107q0 63 15.5 110t42.5 78.5t64.5 47.5t81.5 16t81.5 -16.5t65 -48.5t43 -78.5t15.5 -105.5z"/>
<glyph glyph-name="oacute" horiz-adv-x="497" unicode="ó" d="M248 564l-26 9l64 149l60 -12zM407 244q0 44 -10 83t-30 67.5t-50.5 45t-71.5 16.5q-38 0 -67 -17t-48.5 -45.5t-29 -66.5t-9.5 -80q0 -48 10.5 -88t31 -68.5t50 -44t67.5 -15.5q39 0 68 17.5t49 46.5t30 68t10 81zM453 247q0 -62 -16 -109.5t-43.5 -80.5t-65.5 -50 t-83 -17q-43 0 -79.5 17t-63.5 50t-42.5 80t-15.5 107q0 63 15.5 110t42.5 78.5t64.5 47.5t81.5 16t81.5 -16.5t65 -48.5t43 -78.5t15.5 -105.5z"/>
<glyph glyph-name="ocircumflex" horiz-adv-x="497" unicode="ô" d="M249 654l-122 -89l-18 15l115 115h53l114 -117l-17 -15zM407 244q0 44 -10 83t-30 67.5t-50.5 45t-71.5 16.5q-38 0 -67 -17t-48.5 -45.5t-29 -66.5t-9.5 -80q0 -48 10.5 -88t31 -68.5t50 -44t67.5 -15.5q39 0 68 17.5t49 46.5t30 68t10 81zM453 247q0 -62 -16 -109.5 t-43.5 -80.5t-65.5 -50t-83 -17q-43 0 -79.5 17t-63.5 50t-42.5 80t-15.5 107q0 63 15.5 110t42.5 78.5t64.5 47.5t81.5 16t81.5 -16.5t65 -48.5t43 -78.5t15.5 -105.5z"/>
<glyph glyph-name="otilde" horiz-adv-x="497" unicode="õ" d="M391 640q-15 -32 -39 -46t-50 -14q-17 0 -33 5.5t-31.5 12t-30.5 12t-29 5.5q-18 0 -32.5 -6.5t-31.5 -25.5l-23 15q17 32 40 45t47 13q17 0 33 -6t31 -12.5t30.5 -12.5t32.5 -6t31 7.5t30 27.5zM407 244q0 44 -10 83t-30 67.5t-50.5 45t-71.5 16.5q-38 0 -67 -17 t-48.5 -45.5t-29 -66.5t-9.5 -80q0 -48 10.5 -88t31 -68.5t50 -44t67.5 -15.5q39 0 68 17.5t49 46.5t30 68t10 81zM453 247q0 -62 -16 -109.5t-43.5 -80.5t-65.5 -50t-83 -17q-43 0 -79.5 17t-63.5 50t-42.5 80t-15.5 107q0 63 15.5 110t42.5 78.5t64.5 47.5t81.5 16 t81.5 -16.5t65 -48.5t43 -78.5t15.5 -105.5z"/>
<glyph glyph-name="odieresis" horiz-adv-x="497" unicode="ö" d="M189 629q0 -13 -10 -22.5t-22 -9.5q-14 0 -23.5 9.5t-9.5 22.5q0 14 9.5 23.5t23.5 9.5q12 0 22 -9.5t10 -23.5zM375 629q0 -13 -9.5 -22.5t-22.5 -9.5t-23 9.5t-10 22.5q0 14 9.5 23.5t23.5 9.5q13 0 22.5 -9.5t9.5 -23.5zM407 244q0 44 -10 83t-30 67.5t-50.5 45 t-71.5 16.5q-38 0 -67 -17t-48.5 -45.5t-29 -66.5t-9.5 -80q0 -48 10.5 -88t31 -68.5t50 -44t67.5 -15.5q39 0 68 17.5t49 46.5t30 68t10 81zM453 247q0 -62 -16 -109.5t-43.5 -80.5t-65.5 -50t-83 -17q-43 0 -79.5 17t-63.5 50t-42.5 80t-15.5 107q0 63 15.5 110t42.5 78.5 t64.5 47.5t81.5 16t81.5 -16.5t65 -48.5t43 -78.5t15.5 -105.5z"/>
<glyph glyph-name="divide" d="M101 289v44h386v-44h-386zM331 147q0 -16 -10.5 -26.5t-26.5 -10.5q-14 0 -24.5 10t-10.5 27q0 16 10.5 27t24.5 11q15 0 26 -11t11 -27zM331 474q0 -16 -10.5 -27t-26.5 -11q-14 0 -24.5 10.5t-10.5 27.5q0 16 10.5 26.5t24.5 10.5q15 0 26 -10.5t11 -26.5z" unicode="÷"/>
<glyph glyph-name="oslash" horiz-adv-x="497" unicode="ø" d="M91 247q0 -86 32 -142l232 305q-20 22 -47.5 34t-62.5 12q-38 0 -67 -17t-48.5 -45.5t-29 -66.5t-9.5 -80zM407 244q0 41 -8 76.5t-25 63.5l-234 -304q20 -23 47.5 -36t62.5 -13q39 0 68 17.5t49 46.5t30 68t10 81zM453 247q0 -62 -16 -109.5t-43.5 -80.5t-65.5 -50 t-83 -17q-78 0 -132 54l-44 -57l-24 16l49 64q-24 32 -37 76.5t-13 100.5q0 63 15.5 110t42.5 78.5t64.5 47.5t81.5 16q78 0 133 -52l43 57l25 -19l-47 -61q24 -32 37.5 -75.5t13.5 -98.5z"/>
<glyph glyph-name="ugrave" horiz-adv-x="464" unicode="ù" d="M140 709l60 12l70 -148l-26 -9zM48 489h47v-296q0 -87 31 -125t97 -38q25 0 46.5 9.5t39 25.5t30 37t18.5 45q7 22 7 49v293h46v-489h-46v84h-2q-14 -26 -32 -44.5t-38.5 -29.5t-41 -16t-38.5 -5q-82 0 -123 46t-41 148v306z"/>
<glyph glyph-name="uacute" horiz-adv-x="464" unicode="ú" d="M238 564l-26 9l64 149l60 -12zM48 489h47v-296q0 -87 31 -125t97 -38q25 0 46.5 9.5t39 25.5t30 37t18.5 45q7 22 7 49v293h46v-489h-46v84h-2q-14 -26 -32 -44.5t-38.5 -29.5t-41 -16t-38.5 -5q-82 0 -123 46t-41 148v306z"/>
<glyph glyph-name="ucircumflex" horiz-adv-x="464" unicode="û" d="M239 658l-122 -89l-18 15l115 115h53l114 -117l-17 -15zM48 489h47v-296q0 -87 31 -125t97 -38q25 0 46.5 9.5t39 25.5t30 37t18.5 45q7 22 7 49v293h46v-489h-46v84h-2q-14 -26 -32 -44.5t-38.5 -29.5t-41 -16t-38.5 -5q-82 0 -123 46t-41 148v306z"/>
<glyph glyph-name="udieresis" horiz-adv-x="464" unicode="ü" d="M176 635q0 -13 -10 -22.5t-22 -9.5q-14 0 -23.5 9.5t-9.5 22.5q0 14 9.5 23.5t23.5 9.5q12 0 22 -9.5t10 -23.5zM362 635q0 -13 -9.5 -22.5t-22.5 -9.5t-23 9.5t-10 22.5q0 14 9.5 23.5t23.5 9.5q13 0 22.5 -9.5t9.5 -23.5zM48 489h47v-296q0 -87 31 -125t97 -38 q25 0 46.5 9.5t39 25.5t30 37t18.5 45q7 22 7 49v293h46v-489h-46v84h-2q-14 -26 -32 -44.5t-38.5 -29.5t-41 -16t-38.5 -5q-82 0 -123 46t-41 148v306z"/>
<glyph glyph-name="yacute" horiz-adv-x="445" unicode="ý" d="M226 564l-26 9l64 149l60 -12zM136 -183l64 177q-46 124 -91 246.5t-90 247.5h48l96 -268q14 -42 28.5 -83.5t29.5 -83.5h1l59 167l97 268h47q-61 -167 -122.5 -336t-122.5 -335h-44z"/>
<glyph glyph-name="thorn" horiz-adv-x="482" unicode="þ" d="M99 105q11 -15 26.5 -28.5t33 -24t37 -16.5t38.5 -6q38 0 67.5 16t49.5 45t30.5 69.5t10.5 90.5q0 45 -11 83t-30.5 65t-46 42.5t-58.5 15.5q-45 0 -84 -22t-63 -53v-277zM100 650l1 -218q22 22 43 35t41 19.5t38 8t35 1.5q32 0 64.5 -14.5t58 -45t41.5 -77t16 -110.5 q0 -71 -18 -120t-46.5 -80t-64 -44.5t-71.5 -13.5q-30 0 -64 11t-73 49l-1 -206l-47 -21v826h47z"/>
<glyph glyph-name="ydieresis" horiz-adv-x="445" unicode="ÿ" d="M173 632q0 -13 -10 -22.5t-22 -9.5q-14 0 -23.5 9.5t-9.5 22.5q0 14 9.5 23.5t23.5 9.5q12 0 22 -9.5t10 -23.5zM359 632q0 -13 -9.5 -22.5t-22.5 -9.5t-23 9.5t-10 22.5q0 14 9.5 23.5t23.5 9.5q13 0 22.5 -9.5t9.5 -23.5zM136 -183l64 177q-46 124 -91 246.5t-90 247.5 h48l96 -268q14 -42 28.5 -83.5t29.5 -83.5h1l59 167l97 268h47q-61 -167 -122.5 -336t-122.5 -335h-44z"/>
<glyph glyph-name="dotlessi" horiz-adv-x="210" unicode="ı" d="M82 0v488h47v-488h-47z"/>
<glyph glyph-name="OE" horiz-adv-x="832" unicode="Œ" d="M310 34q37 0 69 12v559q-32 12 -69 12q-54 0 -94 -22t-66.5 -61t-40 -92.5t-13.5 -116.5q0 -58 13 -111t39.5 -93t67 -63.5t94.5 -23.5zM384 0q-33 -10 -74 -10q-62 0 -110.5 24t-82.5 68t-52 105.5t-18 137.5q0 75 18 136.5t51.5 105.5t82.5 68.5t111 24.5q37 0 70 -9 h395v-46h-346v-233h248v-46h-248v-280h360v-46h-405z"/>
<glyph glyph-name="oe" horiz-adv-x="837" unicode="œ" d="M757 263q0 39 -9 74t-28 62t-48 42.5t-69 15.5q-30 0 -56.5 -14t-46.5 -39.5t-32 -61.5t-14 -79h303zM406 244q0 44 -10 83t-30 67.5t-50.5 45t-71.5 16.5q-38 0 -67 -17t-48.5 -45.5t-29 -66.5t-9.5 -80q0 -48 10.5 -88t31 -68.5t50 -44t67.5 -15.5q39 0 68 17.5 t49 46.5t30 68t10 81zM605 496q46 0 83 -17.5t62 -49.5t38.5 -77t13.5 -99v-27h-349q2 -50 15 -87t34.5 -61t50 -36t60.5 -12q65 0 119 48l27 -29q-65 -59 -152 -59q-56 0 -105.5 32.5t-72.5 102.5q-23 -66 -72 -100.5t-112 -34.5q-43 0 -79.5 17t-63.5 50t-42.5 80 t-15.5 107q0 63 15.5 110t42.5 78.5t64.5 47.5t81.5 16q63 0 111 -34.5t71 -100.5q23 64 69.5 99.5t105.5 35.5z"/>
<glyph glyph-name="circumflex" horiz-adv-x="497" unicode="ˆ" d="M248 654l-122 -89l-18 15l115 115h53l114 -117l-17 -15z"/>
<glyph glyph-name="ring" horiz-adv-x="464" unicode="˚" d="M305 635q0 22 -15 37t-37 15q-23 0 -38 -15.5t-15 -36.5q0 -22 15 -37.5t38 -15.5q22 0 37 15.5t15 37.5zM333 635q0 -35 -23.5 -57.5t-56.5 -22.5q-34 0 -57 22.5t-23 57.5q0 34 23 56.5t57 22.5q33 0 56.5 -22.5t23.5 -56.5z"/>
<glyph glyph-name="tilde" horiz-adv-x="491" unicode="˜" d="M395 650q-15 -32 -39 -46t-50 -14q-17 0 -33 5.5t-31.5 12t-30.5 12t-29 5.5q-18 0 -32.5 -6.5t-31.5 -25.5l-23 15q17 32 40 45t47 13q17 0 33 -6t31 -12.5t30.5 -12.5t32.5 -6t31 7.5t30 27.5z"/>
<glyph glyph-name="afii10023" horiz-adv-x="492" unicode="Ё" d="M210 750q0 -13 -10 -22.5t-22 -9.5q-14 0 -23.5 9.5t-9.5 22.5q0 14 9.5 23.5t23.5 9.5q12 0 22 -9.5t10 -23.5zM396 750q0 -13 -9.5 -22.5t-22.5 -9.5t-23 9.5t-10 22.5q0 14 9.5 23.5t23.5 9.5q13 0 22.5 -9.5t9.5 -23.5zM66 0v651h396v-46h-346v-233h248v-46h-248 v-280h360v-46h-410z"/>
<glyph glyph-name="afii10051" horiz-adv-x="715" unicode="Ђ" d="M260 398q16 13 39 22.5t48.5 16t50 9.5t43.5 3q110 0 169 -62.5t59 -170.5q0 -48 -13 -93t-40 -80t-69.5 -57.5t-101.5 -26.5v40q50 4 83.5 25t54 51.5t29 67.5t8.5 73q0 91 -47 140.5t-134 49.5q-45 0 -94 -15t-85 -42v-349h-49v605h-198v46h545v-46h-298v-207z"/>
<glyph glyph-name="afii10052" horiz-adv-x="468" unicode="Ѓ" d="M224 695l-16 22l128 85l43 -43zM116 605v-605h-50v651h398v-46h-348z"/>
<glyph glyph-name="afii10053" horiz-adv-x="534" unicode="Є" d="M471 108q8 -8 17.5 -15.5t18.5 -15.5q-35 -42 -84 -64.5t-112 -22.5q-60 0 -109.5 23t-84 66.5t-53.5 105.5t-19 140t19 140.5t54 106t84 66.5t109 23q64 0 110.5 -20t81.5 -60l-36 -36q-32 36 -69 53t-87 17t-88.5 -19t-65 -52.5t-41.5 -80t-19 -100.5h318v-46h-319v-1 q0 -53 13.5 -103t40.5 -90t67.5 -64t94.5 -24q47 0 87 19t72 54z"/>
<glyph glyph-name="afii10054" horiz-adv-x="513" unicode="Ѕ" d="M253 -10q-62 0 -114 21t-92 58l33 36q38 -34 83 -52.5t95 -18.5q37 0 69 7t56 22.5t37.5 40.5t13.5 61q0 37 -16.5 61t-42.5 40.5t-57.5 27l-61.5 20.5q-41 14 -76.5 28.5t-61 34t-40 47.5t-14.5 69q0 37 15 68t41.5 53.5t64 34.5t82.5 12q53 0 101 -15.5t89 -46.5 q-9 -10 -16 -19t-15 -18q-38 27 -76.5 40t-89.5 13q-69 0 -107 -34t-38 -86q0 -26 10.5 -45t27 -33t38 -24t44.5 -18q38 -14 82 -27.5t81.5 -35.5t62 -56.5t24.5 -89.5q0 -39 -14 -71t-42.5 -55.5t-72.5 -36.5t-103 -13z"/>
<glyph glyph-name="afii10055" horiz-adv-x="224" unicode="І" d="M87 0v651h50v-651h-50z"/>
<glyph glyph-name="afii10056" horiz-adv-x="224" unicode="Ї" d="M53 750q0 -13 -10 -22.5t-22 -9.5q-14 0 -23.5 9.5t-9.5 22.5q0 14 9.5 23.5t23.5 9.5q12 0 22 -9.5t10 -23.5zM239 750q0 -13 -9.5 -22.5t-22.5 -9.5t-23 9.5t-10 22.5q0 14 9.5 23.5t23.5 9.5q13 0 22.5 -9.5t9.5 -23.5zM87 0v651h50v-651h-50z"/>
<glyph glyph-name="afii10057" horiz-adv-x="516" unicode="Ј" d="M451 251q0 -135 -54.5 -198t-166.5 -63q-82 0 -131 35.5t-75 102.5l47 18q23 -53 60 -81.5t102 -28.5q48 0 80 16t51.5 45.5t28 72t8.5 95.5v386h50v-400z"/>
<glyph glyph-name="afii10058" horiz-adv-x="883" unicode="Љ" d="M451 325v-282h207q69 0 109.5 34.5t40.5 105.5q0 68 -39.5 105t-111.5 37h-206zM402 0v605h-221q1 -57 1 -113.5v-113.5q0 -66 -3.5 -131t-20 -119t-50 -90.5t-94.5 -44.5q-1 11 -2.5 22t-2.5 22q43 9 68 35.5t38 69t16.5 101t3.5 132.5v275h316v-282h205q94 0 146.5 -47 t52.5 -139q0 -91 -51 -136.5t-141 -45.5h-261z"/>
<glyph glyph-name="afii10059" horiz-adv-x="881" unicode="Њ" d="M810 183q0 66 -38 104.5t-110 38.5h-208v-282h208q69 0 108.5 34t39.5 105zM860 183q0 -47 -14.5 -81.5t-41 -57t-63 -33.5t-79.5 -11h-258v326h-292v-326h-48v651h48v-282h292v282h50v-282h204q94 0 148 -47t54 -139z"/>
<glyph glyph-name="afii10060" horiz-adv-x="699" unicode="Ћ" d="M600 0v248q0 36 -8.5 66.5t-28 52.5t-51 34t-78.5 12q-23 0 -47.5 -5t-48 -13t-44.5 -19t-37 -23v-353h-48v606h-197v45h541v-45h-296v-204h2q16 10 37.5 20t45.5 17.5t49.5 12t49.5 4.5q58 0 97.5 -16t63.5 -43.5t34.5 -64.5t10.5 -79v-253h-47z"/>
<glyph glyph-name="afii10061" horiz-adv-x="476" unicode="Ќ" d="M196 695l-16 22l128 85l43 -43zM460 0h-62l-281 316l-3 -1v-315h-49v651h49v-301l3 -1l289 302h56l-302 -317z"/>
<glyph glyph-name="afii10062" horiz-adv-x="505" unicode="Ў" d="M177 793q4 -29 24.5 -48t55.5 -19t55.5 19.5t23.5 47.5h39q-2 -18 -9.5 -36.5t-21 -32.5t-35 -23.5t-51.5 -9.5q-31 0 -53 9t-36.5 23.5t-21.5 33t-9 36.5h39zM266 109q-26 -62 -58 -90t-85 -28h-30v44h19q31 0 54.5 12.5t38.5 44.5q5 11 9.5 21t9.5 21l-213 513h50 l188 -460l198 460h49z"/>
<glyph glyph-name="afii10145" horiz-adv-x="604" unicode="Џ" d="M327 0v-168h-53v168h-208v650h49v-605h375v605h48v-650h-211z"/>
<glyph glyph-name="afii10017" horiz-adv-x="592" unicode="А" d="M448 208l-110 281q-11 26 -20.5 51.5t-20.5 53.5h-3l-71 -186l-78 -200h303zM128 162q-15 -41 -31 -81t-31 -81h-53l257 651h54l257 -651h-52q-16 41 -32 81t-31 81h-338z"/>
<glyph glyph-name="afii10018" horiz-adv-x="559" unicode="Б" d="M476 183q0 66 -38.5 103.5t-110.5 37.5h-213v-279h213q72 0 110.5 34.5t38.5 103.5zM323 368q93 0 147 -45.5t55 -139.5q0 -91 -53 -137t-144 -46h-262v651h398v-45h-350v-238h209z"/>
<glyph glyph-name="afii10019" horiz-adv-x="577" unicode="В" d="M115 328v-283h208q77 0 115.5 38t38.5 104q0 33 -12.5 59.5t-34 44.5t-50.5 27.5t-62 9.5h-203zM115 606v-234h202q31 0 55 9.5t41 25.5t26 37.5t9 45.5q0 52 -30 84t-93 32h-210zM526 189q0 -93 -53.5 -141t-154.5 -48h-251v651h256q80 0 126.5 -41t46.5 -117 q0 -21 -6.5 -42.5t-19 -40.5t-32 -34.5t-46.5 -22.5v-2q62 -11 98 -56.5t36 -105.5z"/>
<glyph glyph-name="afii10020" horiz-adv-x="468" unicode="Г" d="M116 605v-605h-50v651h398v-46h-348z"/>
<glyph glyph-name="afii10021" horiz-adv-x="661" unicode="Д" d="M214 606l-6 -168q-2 -51 -5.5 -105.5t-11.5 -106.5t-22 -99t-36 -83h392v562h-311zM583 -155v155h-517v-155h-50v199h51q26 24 43.5 67t28 97.5t15.5 117t7 125.5l6 199h407v-607h58v-198h-49z"/>
<glyph glyph-name="afii10022" horiz-adv-x="492" unicode="Е" d="M66 0v651h396v-46h-346v-233h248v-46h-248v-280h360v-46h-410z"/>
<glyph glyph-name="afii10024" horiz-adv-x="752" unicode="Ж" d="M742 0h-62l-278 316l-3 -1v-315h-47v315l-3 1l-279 -316h-61l296 334l-290 317h56l278 -302l3 1v301h47v-301l3 -1l277 302h57l-291 -317z"/>
<glyph glyph-name="afii10025" horiz-adv-x="508" unicode="З" d="M243 661q105 0 156 -46t51 -118q0 -22 -8 -45.5t-24 -45.5t-40 -39t-56 -25v-1q39 -7 64.5 -24.5t40.5 -40.5t21.5 -48t6.5 -46q0 -45 -17.5 -81t-49 -60.5t-74.5 -37.5t-95 -13q-60 0 -115.5 22t-91.5 60q1 1 6 5.5t10.5 10t10 10.5t5.5 6q37 -35 82 -53t92 -18 q88 0 137 40t49 109q0 36 -13.5 62.5t-36 43t-51.5 24.5t-60 8h-99v42h95q32 0 61 10.5t50.5 28t34 40.5t12.5 49q0 25 -8.5 48t-27 40.5t-48.5 28t-72 10.5q-21 0 -45 -4.5t-46.5 -12t-42.5 -18t-34 -21.5q-1 1 -5.5 6t-9.5 11t-9 11t-5 6q19 16 43.5 28.5t50.5 20.5 t53 12.5t52 4.5z"/>
<glyph glyph-name="afii10026" horiz-adv-x="616" unicode="И" d="M501 0v569l-2 1l-107 -159l-279 -411h-48v651h48v-569h3l102 152l283 417h49v-651h-49z"/>
<glyph glyph-name="afii10027" horiz-adv-x="616" unicode="Й" d="M501 0v569l-2 1l-107 -159l-279 -411h-48v651h48v-569h3l102 152l283 417h49v-651h-49zM226 810q4 -29 24.5 -48t55.5 -19t55.5 19.5t23.5 47.5h39q-2 -18 -9.5 -36.5t-21 -32.5t-35 -23.5t-51.5 -9.5q-31 0 -53 9t-36.5 23.5t-21.5 33t-9 36.5h39z"/>
<glyph glyph-name="afii10028" horiz-adv-x="476" unicode="К" d="M460 0h-62l-281 316l-3 -1v-315h-49v651h49v-301l3 -1l289 302h56l-302 -317z"/>
<glyph glyph-name="afii10029" horiz-adv-x="578" unicode="Л" d="M182 606v-260q0 -74 -6.5 -136.5t-25 -109t-51.5 -75t-86 -34.5l-5 44q36 7 60.5 27.5t39 57.5t21 90.5t6.5 127.5v313h374v-651h-50v606h-277z"/>
<glyph glyph-name="afii10030" horiz-adv-x="694" unicode="М" d="M577 543h-1l-79 -186q-24 -56 -48.5 -112t-45.5 -103.5t-36.5 -82.5t-21.5 -47q-27 57 -53 118q-23 51 -49.5 112.5t-49.5 118.5q-12 28 -24.5 58t-23 56t-18 45t-9.5 25h-1v-545h-48v651h52q30 -71 68 -156.5t73 -169.5l83 -198h4l83 198q35 81 71.5 164.5t69.5 161.5 h51v-651h-47v543z"/>
<glyph glyph-name="afii10031" horiz-adv-x="605" unicode="Н" d="M489 0v318h-374v-318h-49v651h49v-287h374v287h49v-651h-49z"/>
<glyph glyph-name="afii10032" horiz-adv-x="619" unicode="О" d="M522 325q0 61 -13 114.5t-39.5 93t-66.5 62t-94 22.5q-53 0 -93 -22t-66.5 -61t-40 -92.5t-13.5 -116.5q0 -58 13 -111t39.5 -93t66.5 -63.5t94 -23.5q55 0 95 23.5t66 63.5t39 93t13 111zM573 325q0 -77 -18.5 -138.5t-53 -105.5t-83.5 -67.5t-109 -23.5 q-62 0 -110.5 24t-82.5 68t-52 105.5t-18 137.5q0 75 18 136.5t52 105.5t82.5 68.5t110.5 24.5q60 0 109 -24t83.5 -67.5t53 -105.5t18.5 -138z"/>
<glyph glyph-name="afii10033" horiz-adv-x="603" unicode="П" d="M488 0v605h-372v-605h-50v651h472v-651h-50z"/>
<glyph glyph-name="afii10034" horiz-adv-x="537" unicode="Р" d="M116 606v-297h210q72 0 110 40t38 109q0 72 -41 110t-107 38h-210zM525 459q0 -49 -15 -85.5t-42 -61t-65 -37t-84 -12.5h-203v-263h-49v651h259q43 0 80 -12t63 -36t41 -60t15 -84z"/>
<glyph glyph-name="afii10035" horiz-adv-x="537" unicode="С" d="M312 661q64 0 110.5 -19.5t81.5 -59.5l-35 -35q-32 36 -69.5 52.5t-87.5 16.5q-52 0 -92 -22.5t-67.5 -61.5t-41.5 -92t-14 -114t13.5 -114t40.5 -92t67.5 -61.5t94.5 -22.5q95 0 159 73l36 -32q-35 -42 -83.5 -64.5t-112.5 -22.5q-60 0 -109.5 23t-84 66.5t-53.5 105.5 t-19 140q0 76 19.5 138.5t54.5 106t84 67.5t108 24z"/>
<glyph glyph-name="afii10036" horiz-adv-x="478" unicode="Т" d="M265 605v-605h-49v605h-202v46h454v-46h-203z"/>
<glyph glyph-name="afii10037" horiz-adv-x="505" unicode="У" d="M266 109q-26 -62 -58 -90t-85 -28h-30v44h19q31 0 54.5 12.5t38.5 44.5q5 11 9.5 21t9.5 21l-213 513h50l188 -460l198 460h49z"/>
<glyph glyph-name="afii10038" horiz-adv-x="690" unicode="Ф" d="M321 572q-54 -5 -96 -26t-70.5 -53.5t-43 -74.5t-14.5 -89q0 -45 13.5 -86.5t41 -74.5t69.5 -55t100 -28v487zM595 329q0 45 -13.5 87t-41.5 75.5t-71 55t-101 26.5v-489q58 5 101 27t71 55t41.5 75.5t13.5 87.5zM644 329q0 -58 -18.5 -108t-54 -88.5t-86.5 -61.5 t-117 -27v-44h-47v44q-65 5 -115.5 29t-85 61.5t-53 87.5t-18.5 107q0 54 17.5 103.5t52 87.5t85 63t117.5 30v38h47v-38q69 -5 120.5 -29.5t86 -62.5t52 -87.5t17.5 -104.5z"/>
<glyph glyph-name="afii10039" horiz-adv-x="514" unicode="Х" d="M426 0l-170 292l-170 -292h-56l201 335l-187 316h58l155 -271l158 271h55l-186 -314l200 -337h-58z"/>
<glyph glyph-name="afii10040" horiz-adv-x="604" unicode="Ц" d="M544 -156v156h-479v650h48v-605h374v605h49v-606h57v-200h-49z"/>
<glyph glyph-name="afii10041" horiz-adv-x="577" unicode="Ч" d="M462 0v304l-1 1q-35 -21 -89 -38t-110 -17q-64 0 -105 18t-64.5 47t-32.5 67t-9 77v192h46v-182q0 -50 11.5 -84t33.5 -55t53.5 -30t71.5 -9q53 0 106.5 18t88.5 42v300h48v-651h-48z"/>
<glyph glyph-name="afii10042" horiz-adv-x="820" unicode="Ш" d="M65 0v651h49v-606h271v606h50v-606h271v606h48v-651h-689z"/>
<glyph glyph-name="afii10043" horiz-adv-x="825" unicode="Щ" d="M812 -156h-50v156h-696v651h48v-607h272v607h49v-607h271v606h49v-606h57v-200z"/>
<glyph glyph-name="afii10044" horiz-adv-x="764" unicode="Ъ" d="M683 182q0 67 -39.5 103.5t-109.5 36.5h-207v-276h208q31 0 58.5 8t47 24.5t31 42.5t11.5 61zM7 651h320v-283h205q94 0 147.5 -47t53.5 -139q0 -91 -53 -136.5t-141 -45.5h-262v605h-270v46z"/>
<glyph glyph-name="afii10045" horiz-adv-x="709" unicode="Ы" d="M470 183q0 66 -39.5 103t-108.5 37h-207v-277h207q31 0 58.5 8t47 25t31 43t11.5 61zM66 651h49v-282h205q93 0 146 -47t53 -139q0 -91 -52.5 -137t-140.5 -46h-260v651zM593 0v651h49v-651h-49z"/>
<glyph glyph-name="afii10046" horiz-adv-x="549" unicode="Ь" d="M470 182q0 67 -39.5 103.5t-108.5 36.5h-207v-276h207q31 0 58.5 8t47 24.5t31 42.5t11.5 61zM66 651h49v-283h205q93 0 146 -47t53 -139q0 -91 -52.5 -136.5t-140.5 -45.5h-260v651z"/>
<glyph glyph-name="afii10047" horiz-adv-x="541" unicode="Э" d="M125 363h316q-3 53 -18.5 99t-42 80t-64 53.5t-86.5 19.5q-47 0 -84 -15.5t-72 -50.5l-33 34q38 40 82 59t109 19q60 0 108.5 -23t82.5 -66.5t52.5 -106t18.5 -140.5t-19.5 -140t-54.5 -105.5t-85 -66.5t-110 -23q-64 0 -112 22t-83 64q8 8 17.5 16t17.5 16 q32 -35 72.5 -54t88.5 -19q54 0 94 23t67 62t41 90t16 107h-319v46z"/>
<glyph glyph-name="afii10048" horiz-adv-x="736" unicode="Ю" d="M642 325q0 64 -12.5 118t-37.5 93t-62.5 60.5t-86.5 21.5t-86 -22.5t-61.5 -62t-36.5 -93t-12 -115.5q0 -63 11.5 -116.5t35.5 -92.5t61 -61t88 -22q52 0 89.5 22.5t62 62t36 93t11.5 114.5zM690 325q0 -161 -65.5 -247.5t-181.5 -86.5q-113 0 -178 82t-67 246h-85v-319 h-48v651h48v-288h87q5 68 23 123t49 93.5t73.5 59.5t97.5 21t101 -22.5t78 -65t50 -105t18 -142.5z"/>
<glyph glyph-name="afii10049" horiz-adv-x="569" unicode="Я" d="M248 607q-33 0 -61 -11t-48.5 -31t-32 -48.5t-11.5 -63.5q0 -69 41 -106.5t110 -37.5h208v298h-206zM44 453q0 48 15 85t42 62t64 38t80 13h258v-651h-49v265h-215l-127 -265h-57l132 271q-68 17 -105.5 62t-37.5 120z"/>
<glyph glyph-name="afii10065" horiz-adv-x="461" unicode="а" d="M361 216q-36 20 -69.5 31t-79.5 11q-28 0 -52 -7.5t-42 -22.5t-28 -36.5t-10 -49.5q0 -56 33.5 -85t93.5 -29q49 2 86.5 23.5t67.5 52.5v112zM361 57h-1q-24 -23 -46.5 -36t-43.5 -19.5t-40 -8.5t-37 -2q-29 0 -57 8t-50.5 26t-36.5 46t-14 69q0 33 12 61.5t35 49.5 t56.5 32.5t75.5 11.5q32 0 69 -7.5t78 -31.5v78q0 66 -33 93.5t-96 27.5q-35 0 -67.5 -8.5t-61.5 -22.5l-16 39q34 15 70 24t81 9q81 0 125 -38t44 -114v-344h-46v57z"/>
<glyph glyph-name="afii10066" horiz-adv-x="511" unicode="б" d="M95 355q10 27 27 50t39.5 40t50 26.5t57.5 9.5q97 0 147 -63.5t50 -177.5q0 -57 -15 -103.5t-42 -79.5t-65.5 -50.5t-86.5 -17.5q-54 0 -94 21.5t-66.5 61.5t-39 98t-12.5 130q0 55 8 105.5t27 92.5t50.5 75t79.5 54q47 22 102 33t106 26q0 -2 2 -7.5t4 -11.5t3.5 -12 t1.5 -7q-29 -10 -56.5 -16t-53.5 -11.5t-51.5 -13t-49.5 -20.5q-34 -18 -57.5 -43.5t-38.5 -56t-22 -64.5t-8 -67zM264 442q-32 0 -61.5 -14t-52.5 -42t-36.5 -68.5t-13.5 -93.5q0 -40 10 -75.5t30.5 -62t50 -42t68.5 -15.5q40 0 70 16.5t50 45.5t30 68t10 84q0 95 -40 147 t-115 52z"/>
<glyph glyph-name="afii10067" horiz-adv-x="461" unicode="в" d="M97 448v-165h154q48 0 74 24t26 58q0 36 -22.5 59.5t-72.5 23.5h-159zM97 241v-202h159q60 0 89.5 27.5t29.5 73.5q0 49 -35 75t-87 26h-156zM322 264q48 -10 74.5 -44.5t26.5 -76.5q0 -71 -44.5 -107t-125.5 -36h-202v488h206q64 0 103 -31t39 -89q0 -15 -4.5 -30.5 t-13.5 -30t-23.5 -26t-35.5 -17.5z"/>
<glyph glyph-name="afii10068" horiz-adv-x="380" unicode="г" d="M98 448v-448h-46v488h325v-40h-279z"/>
<glyph glyph-name="afii10069" horiz-adv-x="522" unicode="д" d="M172 450l-6 -127q-2 -35 -5.5 -72.5t-10 -75t-16.5 -72.5t-26 -65h298v412h-234zM452 -138v138h-395v-138h-44v176h40q18 20 30.5 50.5t20 69.5t12 84.5t6.5 94.5l7 151h322v-450h45v-176h-44z"/>
<glyph glyph-name="afii10070" horiz-adv-x="473" unicode="е" d="M393 263q0 39 -9 74t-27.5 61.5t-47.5 42t-69 15.5q-31 0 -57.5 -14t-46 -39.5t-32 -61t-14.5 -78.5h303zM242 496q46 0 82.5 -17.5t62 -49.5t38.5 -77t13 -99v-27h-348q1 -49 14.5 -85.5t35 -61t49.5 -37t60 -12.5t63 13t57 36l27 -30q-65 -59 -153 -59q-39 0 -74.5 15 t-63.5 46.5t-44.5 78.5t-16.5 112q0 59 15 106t42 80t63 50.5t78 17.5z"/>
<glyph glyph-name="afii10072" horiz-adv-x="593" unicode="ж" d="M586 487l-221 -226l222 -261h-59l-207 249v-249h-46v249l-207 -249h-59l222 261l-221 226h56l209 -216v216h46v-216l209 216h56z"/>
<glyph glyph-name="afii10073" horiz-adv-x="431" unicode="з" d="M195 -9q-49 0 -93.5 16.5t-75.5 46.5q7 8 13.5 15t13.5 15q29 -27 65 -41t77 -14q68 0 106 29t38 80q0 25 -10 43.5t-27 30t-39 17t-46 5.5h-84v38h78q54 0 86.5 27t32.5 64q0 19 -7 35.5t-22 29t-38 20t-56 7.5q-36 0 -70.5 -13t-58.5 -31q-7 8 -12.5 15.5t-12.5 15.5 q33 26 74.5 39t83.5 13q85 0 125 -36.5t40 -88.5q0 -15 -5 -32t-16 -32.5t-27.5 -29t-39.5 -21.5q28 -6 46.5 -19.5t30 -30t16 -34t4.5 -32.5q0 -72 -52 -109.5t-138 -37.5z"/>
<glyph glyph-name="afii10074" horiz-adv-x="478" unicode="и" d="M376 409l-70 -103l-209 -306h-46v489h46v-413h3l84 124l195 289h48v-489h-47v408z"/>
<glyph glyph-name="afii10075" horiz-adv-x="478" unicode="й" d="M376 409l-70 -103l-209 -306h-46v489h46v-413h3l84 124l195 289h48v-489h-47v408zM161 675q4 -29 24.5 -48t55.5 -19t55.5 19.5t23.5 47.5h39q-2 -18 -9.5 -36.5t-21 -32.5t-35 -23.5t-51.5 -9.5q-31 0 -53 9t-36.5 23.5t-21.5 33t-9 36.5h39z"/>
<glyph glyph-name="afii10076" horiz-adv-x="388" unicode="к" d="M376 487l-232 -226l233 -261h-59l-221 249v-249h-46v487h46v-216l223 216h56z"/>
<glyph glyph-name="afii10077" horiz-adv-x="475" unicode="л" d="M371 449h-218v-178q0 -50 -4.5 -97.5t-19.5 -85t-43.5 -63t-76.5 -32.5l-5 38q34 8 54.5 28t31.5 52t15 75.5t4 99.5v202h307v-488h-45v449z"/>
<glyph glyph-name="afii10078" horiz-adv-x="555" unicode="м" d="M280 106l51 110l126 273h47v-489h-47v381l-3 1l-45 -96l-133 -280l-133 283l-44 94l-2 -1v-382h-46v489h46l128 -274l51 -109h4z"/>
<glyph glyph-name="afii10079" horiz-adv-x="487" unicode="н" d="M389 0v237h-291v-237h-46v489h46v-211h291v211h46v-489h-46z"/>
<glyph glyph-name="afii10080" horiz-adv-x="497" unicode="о" d="M407 244q0 44 -10 83t-30 67.5t-50.5 45t-71.5 16.5q-38 0 -67 -17t-48.5 -45.5t-29 -66.5t-9.5 -80q0 -48 10.5 -88t31 -68.5t50 -44t67.5 -15.5q39 0 68 17.5t49 46.5t30 68t10 81zM453 247q0 -62 -16 -109.5t-43.5 -80.5t-65.5 -50t-83 -17q-43 0 -79.5 17t-63.5 50 t-42.5 80t-15.5 107q0 63 15.5 110t42.5 78.5t64.5 47.5t81.5 16t81.5 -16.5t65 -48.5t43 -78.5t15.5 -105.5z"/>
<glyph glyph-name="afii10081" horiz-adv-x="480" unicode="п" d="M381 0v446h-281v-446h-48v489h376v-489h-47z"/>
<glyph glyph-name="afii10082" horiz-adv-x="483" unicode="р" d="M100 106q23 -30 59.5 -52.5t74.5 -22.5q76 0 117.5 58.5t41.5 161.5q0 45 -11 83t-30.5 65t-46.5 42.5t-59 15.5q-46 0 -84.5 -22t-61.5 -53v-276zM101 489v-56h1q38 39 78.5 51t72.5 12q34 0 67.5 -14.5t59.5 -44.5t42 -77t16 -111q0 -71 -18 -120t-46.5 -80t-64 -44.5 t-71.5 -13.5q-30 0 -64 11t-73 49h-1v-216l-46 -21v675h47z"/>
<glyph glyph-name="afii10083" horiz-adv-x="420" unicode="с" d="M242 496q45 0 80.5 -13.5t67.5 -44.5l-31 -32q-29 27 -58.5 38t-61.5 11q-35 0 -62 -17t-46 -45.5t-29 -67.5t-10 -82q0 -45 10 -83.5t29.5 -67t47.5 -44.5t64 -16q35 0 61.5 12t55.5 38l30 -29q-27 -29 -62 -46t-88 -17q-39 0 -74.5 16t-62.5 48t-42.5 79t-15.5 110 t15.5 110t42.5 79t63 48t76 16z"/>
<glyph glyph-name="afii10084" horiz-adv-x="387" unicode="т" d="M218 448v-448h-47v448h-160v41h368v-41h-161z"/>
<glyph glyph-name="afii10085" horiz-adv-x="445" unicode="у" d="M136 -183l64 177q-46 124 -91 246.5t-90 247.5h48l96 -268q14 -42 28.5 -83.5t29.5 -83.5h1l59 167l97 268h47q-61 -167 -122.5 -336t-122.5 -335h-44z"/>
<glyph glyph-name="afii10086" horiz-adv-x="630" unicode="ф" d="M292 455q-96 -5 -150 -60.5t-54 -149.5q0 -66 21.5 -108t53 -66t67 -33t62.5 -10v427zM338 27q26 2 61.5 11.5t67 33.5t53.5 65.5t22 107.5q0 94 -52 150t-152 60v-428zM338 -161q-11 -5 -23 -9.5t-23 -9.5v173q-115 2 -182 65.5t-67 189.5q0 57 19.5 102t53 76.5 t79 48.5t97.5 19v165l46 19q0 -46 -0.5 -92t-0.5 -92q54 -2 100 -18t79.5 -47t52 -76t18.5 -105q0 -61 -19 -108t-52 -79t-78.5 -49.5t-99.5 -18.5v-154z"/>
<glyph glyph-name="afii10087" horiz-adv-x="398" unicode="х" d="M318 0l-120 212l-123 -212h-51l149 251l-138 237h51l113 -195l113 195h51l-139 -234l149 -254h-55z"/>
<glyph glyph-name="afii10088" horiz-adv-x="506" unicode="ц" d="M478 -138h-45v138h-382v489h46v-450h291v450h47v-450h43v-177z"/>
<glyph glyph-name="afii10089" horiz-adv-x="444" unicode="ч" d="M344 250q-33 -38 -75.5 -55.5t-76.5 -17.5q-78 0 -119.5 40.5t-41.5 137.5v133h47v-128q0 -77 29 -109.5t91 -32.5q37 0 77 19.5t71 60.5v190h46v-488h-46v250h-2z"/>
<glyph glyph-name="afii10090" horiz-adv-x="683" unicode="ш" d="M52 0v489h45v-450h219v450h45v-450h225v450h45v-489h-579z"/>
<glyph glyph-name="afii10091" horiz-adv-x="700" unicode="щ" d="M52 489h45v-450h219v450h45v-450h224v450h46v-450h43v-177h-45v138h-577v489z"/>
<glyph glyph-name="afii10092" horiz-adv-x="599" unicode="ъ" d="M526 141q0 48 -29.5 75t-83.5 27h-157v-203h158q50 0 81 25t31 76zM573 142q0 -71 -43.5 -106.5t-116.5 -35.5h-203v448h-203v41h249v-206h150q79 0 123 -36t44 -105z"/>
<glyph glyph-name="afii10093" horiz-adv-x="576" unicode="ы" d="M373 140q0 48 -30 75t-83 27h-160v-203h161q50 0 81 25t31 76zM422 140q0 -71 -45 -105.5t-117 -34.5h-205v489h45v-208h157q77 0 121 -36t44 -105zM477 0v489h45v-489h-45z"/>
<glyph glyph-name="afii10094" horiz-adv-x="448" unicode="ь" d="M371 141q0 48 -30 75t-84 27h-158v-203h160q50 0 81 25t31 76zM419 141q0 -72 -44.5 -106.5t-117.5 -34.5h-205v489h47v-207h155q77 0 121 -36t44 -105z"/>
<glyph glyph-name="afii10095" horiz-adv-x="426" unicode="э" d="M191 496q41 0 75.5 -15t60 -44.5t40 -74t14.5 -102.5q0 -67 -15.5 -117.5t-42 -84.5t-62.5 -51t-78 -17q-53 0 -89 17t-62 47l30 29q29 -27 56 -39.5t62 -12.5q36 0 64.5 16t48 43.5t29.5 64t11 78.5h-242v41h241q0 37 -10 70t-28 57.5t-44 39t-59 14.5q-31 0 -62.5 -10 t-62.5 -37l-29 32q33 29 71 42.5t83 13.5z"/>
<glyph glyph-name="afii10096" horiz-adv-x="600" unicode="ю" d="M511 243q0 43 -9 82t-27.5 68t-47.5 46t-68 17t-67 -16.5t-46 -45t-26.5 -67.5t-8.5 -83q0 -42 8 -80.5t26 -68t46 -47.5t68 -18t69 17.5t47.5 47t27 68t8.5 80.5zM555 244q0 -57 -13 -103t-38.5 -79t-62 -51t-82.5 -18q-54 0 -90 22t-58.5 57t-32.5 78t-12 85h-66v-235 h-45v489h45v-214h68q3 39 14.5 78.5t34.5 70.5t58 50.5t84 19.5q47 0 83.5 -18t61.5 -51t38 -79t13 -102z"/>
<glyph glyph-name="afii10097" horiz-adv-x="466" unicode="я" d="M88 337q0 -51 32.5 -76t84.5 -25h163v213h-163q-24 0 -45.5 -8t-37.5 -22.5t-25 -35.5t-9 -46zM48 0l105 202q-53 13 -82 46t-29 89q0 36 12 64.5t34 48t51 29.5t64 10h212v-489h-47v196h-169l-100 -196h-51z"/>
<glyph glyph-name="afii10071" horiz-adv-x="473" unicode="ё" d="M185 628q0 -13 -10 -22.5t-22 -9.5q-14 0 -23.5 9.5t-9.5 22.5q0 14 9.5 23.5t23.5 9.5q12 0 22 -9.5t10 -23.5zM371 628q0 -13 -9.5 -22.5t-22.5 -9.5t-23 9.5t-10 22.5q0 14 9.5 23.5t23.5 9.5q13 0 22.5 -9.5t9.5 -23.5zM393 263q0 39 -9 74t-27.5 61.5t-47.5 42 t-69 15.5q-31 0 -57.5 -14t-46 -39.5t-32 -61t-14.5 -78.5h303zM242 496q46 0 82.5 -17.5t62 -49.5t38.5 -77t13 -99v-27h-348q1 -49 14.5 -85.5t35 -61t49.5 -37t60 -12.5t63 13t57 36l27 -30q-65 -59 -153 -59q-39 0 -74.5 15t-63.5 46.5t-44.5 78.5t-16.5 112 q0 59 15 106t42 80t63 50.5t78 17.5z"/>
<glyph glyph-name="afii10099" horiz-adv-x="514" unicode="ђ" d="M135 0h-46v539h-71v35h71v87l46 21v-108h231v-35h-231v-158h2q14 27 33 45t39.5 29t41.5 16t39 5q82 0 130 -58.5t48 -167.5q0 -51 -12 -95.5t-37.5 -81t-66 -63.5t-96.5 -42l-10 42q84 23 129.5 82.5t45.5 153.5q0 95 -39 142t-104 47q-30 0 -56.5 -14t-45.5 -37.5 t-30 -53.5t-11 -62v-268z"/>
<glyph glyph-name="afii10100" horiz-adv-x="381" unicode="ѓ" d="M192 564l-26 9l64 149l60 -12zM98 448v-448h-46v488h325v-40h-279z"/>
<glyph glyph-name="afii10101" horiz-adv-x="430" unicode="є" d="M243 496q46 0 81 -13.5t67 -45.5l-30 -32q-29 28 -59 39t-62 11t-57.5 -14t-44.5 -38.5t-30 -58t-14 -71.5h239v-42h-240q1 -42 12 -78.5t30.5 -63.5t47.5 -42.5t63 -15.5t62.5 12.5t56.5 39.5l31 -28q-27 -30 -63.5 -47.5t-89.5 -17.5q-38 0 -74 16t-63.5 48t-44 79 t-16.5 110t16 110t43 79t63 48t76 16z"/>
<glyph glyph-name="afii10102" horiz-adv-x="419" unicode="ѕ" d="M382 123q0 -33 -14 -58t-38.5 -41.5t-57.5 -25t-70 -8.5q-42 0 -85 10t-81 30l19 38q38 -20 76.5 -29t72.5 -9q23 0 46.5 5t42.5 16t31 28t12 41t-10.5 41.5t-29 30t-44 22.5t-55.5 19q-34 10 -62 22.5t-48 29t-31 37.5t-11 48q0 55 45 90t125 35q36 0 73.5 -7t70.5 -24 l-16 -39q-35 17 -69.5 23.5t-59.5 6.5q-56 0 -90 -24t-34 -57q0 -14 5.5 -27.5t19.5 -26t37 -24.5t59 -22q36 -11 67 -23.5t54.5 -29.5t36.5 -41t13 -57z"/>
<glyph glyph-name="afii10103" horiz-adv-x="210" unicode="і" d="M82 0v489h46v-489h-46zM137 626q0 -14 -9.5 -23.5t-22.5 -9.5q-14 0 -23 9.5t-9 23.5q0 13 9 22t22 9q14 0 23.5 -9t9.5 -22z"/>
<glyph glyph-name="afii10104" horiz-adv-x="210" unicode="ї" d="M47 632q0 -13 -10 -22.5t-22 -9.5q-14 0 -23.5 9.5t-9.5 22.5q0 14 9.5 23.5t23.5 9.5q12 0 22 -9.5t10 -23.5zM233 632q0 -13 -9.5 -22.5t-22.5 -9.5t-23 9.5t-10 22.5q0 14 9.5 23.5t23.5 9.5q13 0 22.5 -9.5t9.5 -23.5zM82 0v488h47v-488h-47z"/>
<glyph glyph-name="afii10105" horiz-adv-x="211" unicode="ј" d="M135 -7q0 -42 -4.5 -75.5t-19.5 -57t-44 -37.5t-78 -18l-4 41q36 5 57 16t31.5 28.5t13 41.5t2.5 55v502h46v-496zM145 626q0 -14 -9 -23.5t-22 -9.5q-14 0 -23 9.5t-9 23.5q0 13 9 22t22 9q14 0 23 -9t9 -22z"/>
<glyph glyph-name="afii10106" horiz-adv-x="699" unicode="љ" d="M365 241v-201h159q48 0 79 25.5t31 75.5q0 46 -29 73t-81 27h-159zM319 0v447h-166v-175q0 -51 -4 -98.5t-18.5 -85t-43.5 -63t-79 -31.5l-7 39q33 7 54 23.5t33.5 46.5t17 75.5t4.5 108.5v201h255v-207h148q76 0 122 -34.5t46 -106.5q0 -35 -12 -61.5t-34 -44t-51.5 -26 t-63.5 -8.5h-201z"/>
<glyph glyph-name="afii10107" horiz-adv-x="703" unicode="њ" d="M638 142q0 46 -29.5 73t-82.5 27h-157v-200h157q52 0 82 24.5t30 75.5zM684 142q0 -72 -43 -107t-118 -35h-202v242h-223v-242h-46v488h46v-205h223v205h48v-205h159q33 0 61.5 -8.5t49.5 -26t33 -44t12 -62.5z"/>
<glyph glyph-name="afii10108" horiz-adv-x="485" unicode="ћ" d="M391 269q0 85 -32.5 123.5t-98.5 38.5q-35 0 -63.5 -18t-45.5 -47q-16 -21 -24.5 -47.5t-8.5 -52.5v-266h-46v538h-59v35h59v87l46 21v-108h230v-35h-230v-161h1q14 26 32.5 44t39 29.5t41.5 16.5t39 5q84 0 125.5 -47.5t41.5 -148.5v-276h-47v269z"/>
<glyph glyph-name="afii10109" horiz-adv-x="383" unicode="ќ" d="M376 487l-232 -226l233 -261h-59l-221 249v-249h-46v487h46v-216l223 216h56zM183 564l-26 9l64 149l60 -12z"/>
<glyph glyph-name="afii10110" horiz-adv-x="445" unicode="ў" d="M153 675q4 -29 24.5 -48t55.5 -19t55.5 19.5t23.5 47.5h39q-2 -18 -9.5 -36.5t-21 -32.5t-35 -23.5t-51.5 -9.5q-31 0 -53 9t-36.5 23.5t-21.5 33t-9 36.5h39zM136 -183l64 177q-46 124 -91 246.5t-90 247.5h48l96 -268q14 -42 28.5 -83.5t29.5 -83.5h1l59 167l97 268h47 q-61 -167 -122.5 -336t-122.5 -335h-44z"/>
<glyph glyph-name="afii10193" horiz-adv-x="479" unicode="џ" d="M261 0v-150h-45v150h-164v489h45v-449h283v449h47v-489h-166z"/>
<glyph glyph-name="afii10050" horiz-adv-x="468" unicode="Ґ" d="M65 651h351v130h48v-175h-349v-606h-50v651z"/>
<glyph glyph-name="afii10098" horiz-adv-x="385" unicode="ґ" d="M378 448h-281v-448h-45v488l282 -1v111h44v-150z"/>
<glyph glyph-name="endash" horiz-adv-x="500" unicode="–" d="M33 270v45h434v-45h-434z"/>
<glyph glyph-name="emdash" horiz-adv-x="1000" unicode="—" d="M33 274v45h934v-45h-934z"/>
<glyph glyph-name="quoteleft" horiz-adv-x="207" unicode="‘" d="M136 634q-15 -11 -24.5 -28.5t-11.5 -36.5q17 0 30 -8.5t13 -28.5q0 -17 -12.5 -28.5t-26.5 -11.5q-15 0 -30 13t-15 41q0 33 17.5 60t46.5 46z"/>
<glyph glyph-name="quoteright" horiz-adv-x="207" unicode="’" d="M66 510q15 11 24.5 28.5t11.5 36.5q-17 0 -30 8.5t-13 28.5q0 17 12.5 28.5t26.5 11.5q15 0 30 -13t15 -41q0 -33 -17.5 -60t-46.5 -46z"/>
<glyph glyph-name="quotesinglbase" horiz-adv-x="184" unicode="‚" d="M52 -67q15 12 24.5 29.5t11.5 36.5q-18 0 -30.5 8t-12.5 27t12.5 30t26.5 11q16 0 30.5 -13t14.5 -41q0 -34 -17.5 -60.5t-46.5 -44.5z"/>
<glyph glyph-name="quotedblleft" horiz-adv-x="314" unicode="“" d="M251 634q-15 -11 -24.5 -28.5t-11.5 -36.5q17 0 30 -8.5t13 -28.5q0 -17 -12.5 -28.5t-26.5 -11.5q-15 0 -30 13t-15 41q0 33 17.5 60t46.5 46zM130 634q-15 -11 -24.5 -28.5t-11.5 -36.5q17 0 30 -8.5t13 -28.5q0 -17 -12.5 -28.5t-26.5 -11.5q-15 0 -30 13t-15 41 q0 33 17.5 60t46.5 46z"/>
<glyph glyph-name="quotedblright" horiz-adv-x="314" unicode="”" d="M61 510q15 11 24.5 28.5t11.5 36.5q-17 0 -30 8.5t-13 28.5q0 17 12.5 28.5t26.5 11.5q15 0 30 -13t15 -41q0 -33 -17.5 -60t-46.5 -46zM182 510q15 11 24.5 28.5t11.5 36.5q-17 0 -30 8.5t-13 28.5q0 17 12.5 28.5t26.5 11.5q15 0 30 -13t15 -41q0 -33 -17.5 -60 t-46.5 -46z"/>
<glyph glyph-name="quotedblbase" horiz-adv-x="320" unicode="„" d="M198 -67q15 12 24.5 29.5t11.5 36.5q-17 0 -30 7.5t-13 27.5q0 19 12.5 30t26.5 11q15 0 30 -13t15 -41q0 -33 -17.5 -60t-46.5 -45zM55 -67q15 12 24.5 29.5t11.5 36.5q-18 0 -30.5 8t-12.5 27t12.5 30t26.5 11q16 0 30.5 -13t14.5 -41q0 -34 -17.5 -60.5t-46.5 -44.5z "/>
<glyph glyph-name="bullet" horiz-adv-x="331" unicode="•" d="M252 292q0 -36 -24.5 -60.5t-59.5 -24.5t-59.5 24.5t-24.5 60.5t24.5 61.5t59.5 25.5q17 0 32.5 -7t27 -18.5t18 -27.5t6.5 -34z"/>
<glyph glyph-name="guilsinglleft" horiz-adv-x="353" unicode="‹" d="M213 37l-133 205l133 205h49l-134 -205l134 -205h-49z"/>
<glyph glyph-name="guilsinglright" horiz-adv-x="353" unicode="›" d="M131 40h-48l134 205l-134 205h49l133 -205z"/>
<glyph glyph-name="fraction" horiz-adv-x="87" unicode="⁄" d="M-133 -26h-45l404 704h45z"/>
<glyph glyph-name="fraction" horiz-adv-x="87" unicode="∕" d="M-133 -26h-45l404 704h45z"/>
<glyph glyph-name="foursuperior" horiz-adv-x="383" unicode="⁴" d="M81 478h181v203zM305 349h-43v91h-240v34l240 267h43v-263h57v-38h-57v-91z"/>
<glyph glyph-name="Euro" d="M163 250q7 -48 24 -87.5t43 -67.5t61.5 -43.5t78.5 -15.5q85 0 145 57l32 -36q-34 -32 -78 -49.5t-100 -17.5q-106 0 -175.5 66.5t-84.5 193.5h-60v40h404v-40h-290zM107 390q7 64 29 114.5t56.5 85t79.5 53t98 18.5q104 0 169 -57l-34 -39q-28 26 -61 37.5t-75 11.5 q-46 0 -82.5 -16.5t-62.5 -46.5t-42 -71t-22 -90h293v-40h-404v40h58z" unicode="€"/>
<glyph glyph-name="afii61352" horiz-adv-x="874" unicode="№" d="M775 492q0 27 -6.5 50.5t-20 41t-33 27.5t-44.5 10t-43.5 -10.5t-31 -28t-18.5 -41t-6 -49.5q0 -59 27 -95.5t75 -36.5q25 0 43.5 11t31.5 29t19.5 42t6.5 50zM819 492q0 -84 -42 -127t-105 -43q-61 0 -101.5 44.5t-40.5 125.5q0 83 40.5 124.5t102.5 41.5 q63 0 104.5 -43t41.5 -123zM427 0l-318 568v-568h-45v651h49l314 -560v560h45v-651h-45zM549 238v36h252v-36h-252z"/>
<glyph glyph-name="Bsmall" horiz-adv-x="455" unicode="" d="M97 467v-172h153q46 0 72 26t26 61q0 38 -22.5 61.5t-69.5 23.5h-159zM97 253v-210h159q57 0 86.5 28t29.5 77q0 25 -9.5 44.5t-26 33t-38 20.5t-46.5 7h-155zM416 149q0 -73 -42.5 -111t-122.5 -38h-201v510h205q64 0 101.5 -32.5t37.5 -92.5q0 -15 -4 -31.5t-13 -31.5 t-23 -27t-33 -19q45 -11 70 -46.5t25 -80.5z"/>
</font>
</defs>
</svg>
